<svg xmlns="http://www.w3.org/2000/svg" xmlns:xlink="http://www.w3.org/1999/xlink" viewBox="0 0 2113.82032 514.70238"><defs><clipPath id="clip-path" transform="translate(190.07407 75.70238)"><polyline points="501.193 269.452 321.193 295.876 321.193 225.349 501.193 198.925" style="fill:none"/></clipPath></defs><title>examples</title><g style="isolation:isolate"><g id="Layer_1" data-name="Layer 1"><rect x="218.7564" y="134.70238" width="1895.06392" height="380" style="fill:none"/><rect x="-195.49876" y="29.52195" width="734.79474" height="71.79738" transform="translate(178.48089 128.4836) rotate(-16.8952)" style="fill:#1baaa4"/><text transform="translate(213.61784 205.95481) rotate(-16.9131)" style="font-size:54px;fill:#e59739;font-family:SegoeUI-Bold, Segoe UI;font-weight:700"><tspan style="letter-spacing:0.02001953125em">E</tspan><tspan x="29.82129" y="0">XAMPLES</tspan></text></g><g id="Layer_2" data-name="Layer 2"><g id="_Group_" data-name="&lt;Group&gt;"><g id="_Group_2" data-name="&lt;Group&gt;"><path d="M1619.88212,310.43322l-27.35156,8.30987c5.8682-8.52673,1.702-2.4731,7.57022-10.99984" transform="translate(190.07407 75.70238)" style="fill:#aaa794"/><path d="M1455.27779,310.58549l27.35156,8.30986c-5.8682-8.52673-1.702-2.4731-7.57022-10.99984Z" transform="translate(190.07407 75.70238)" style="fill:#aaa794"/><path id="_Path_" data-name="&lt;Path&gt;" d="M1633.88664,173.41757,1537.58,130.75l-96.30668,42.66757S1436.39693,319.70619,1537.58,367.25C1638.76289,319.70619,1633.88664,173.41757,1633.88664,173.41757Z" transform="translate(190.07407 75.70238)" style="fill:#e6e2c6"/><path id="_Path_2" data-name="&lt;Path&gt;" d="M1537.57985,360.9078c-38.99051-19.27658-66.06656-56.13379-80.50254-109.59924a304.18031,304.18031,0,0,1-10.12243-74.16l90.625-40.15028,90.62542,40.15028a304.1305,304.1305,0,0,1-10.12242,74.16C1603.64629,304.774,1576.57082,341.63122,1537.57985,360.9078Z" transform="translate(190.07407 75.70238)" style="fill:#da5a41"/><path id="_Path_3" data-name="&lt;Path&gt;" d="M1605.33544,287.47537q-2.95916,6.52332-6.26206,12.58027c-15.1472,27.778-35.69761,48.171-61.443,60.89912-29.55124-14.60989-52.25852-39.31853-67.80592-73.7026" transform="translate(190.07407 75.70238)" style="fill:#1baaa4"/><polygon points="1727.654 409.178 1729.812 413.551 1734.638 414.253 1731.146 417.657 1731.971 422.463 1727.654 420.194 1723.338 422.463 1724.162 417.657 1720.67 414.253 1725.496 413.551 1727.654 409.178" style="fill:#e6e2c6"/><path d="M1619.88208,310.58545a1048.98755,1048.98755,0,0,0-164.60425,0q-1.15117-14.62147-2.30151-29.24292a1078.31143,1078.31143,0,0,1,169.20727,0Q1621.03277,295.964,1619.88208,310.58545Z" transform="translate(190.07407 75.70238)" style="fill:#e6e2c6"/><path d="M1566.455,186.583a9.6251,9.6251,0,1,0-12.67291,9.086c.539,13.77979-6.48405,15.2845-16.03526,17.29612-5.483,1.155-11.68475,2.48646-16.2085,6.68938V195.61768a9.62508,9.62508,0,1,0-6.41666,0v39.67746a9.62194,9.62194,0,1,0,6.50329.02887c.86625-12.58308,8.24542-14.14233,17.44371-16.08017,9.74691-2.05333,21.73325-4.62642,21.10762-23.66787A9.59839,9.59839,0,0,0,1566.455,186.583Zm-53.9,0a5.775,5.775,0,1,1,5.775,5.775A5.77957,5.77957,0,0,1,1512.555,186.583Zm11.55,57.75a5.775,5.775,0,1,1-5.775-5.775A5.77958,5.77958,0,0,1,1524.105,244.333Zm32.725-51.975a5.775,5.775,0,1,1,5.775-5.775A5.77957,5.77957,0,0,1,1556.83,192.358Z" transform="translate(190.07407 75.70238)" style="fill:#1baaa4"/></g><g id="_Group_3" data-name="&lt;Group&gt;" style="mix-blend-mode:multiply"><path id="_Path_4" data-name="&lt;Path&gt;" d="M1633.88664,173.41757,1537.58,130.75v236.5c39.58433-18.59988,62.93635-52.31261,76.69836-86.46672C1635.69387,227.63485,1633.88664,173.41757,1633.88664,173.41757Z" transform="translate(190.07407 75.70238)" style="fill:#e6e2c6"/><polyline points="1812.196 356.955 1809.956 386.288 1790.273 384.944 1804.352 356.486" style="fill:#e6e2c6"/></g></g><g id="_Group_4" data-name="&lt;Group&gt;"><path d="M1496.9364,302.95276q-.72473-9.20733-1.44934-18.41467,1.23542-.09723,2.4707-.18869a5.51192,5.51192,0,0,1,3.89563.80926,6.34035,6.34035,0,0,1,1.32215,5.88178,5.392,5.392,0,0,1-1.24707,1.77011,3.7477,3.7477,0,0,1,1.75781,2.15033,6.92726,6.92726,0,0,1,.45056,2.23742,6.43128,6.43128,0,0,1-.65442,3.61927,3.98573,3.98573,0,0,1-3.20654,1.88324Q1498.60614,302.82138,1496.9364,302.95276Zm1.91736-11.03354a2.18543,2.18543,0,0,0,1.21069-.36456c.44043-.33383.75733-.96073.66895-2.23889-.0885-1.27906-.49207-1.85541-.97888-2.12314a2.19526,2.19526,0,0,0-1.26136-.18595Q1498.67316,289.46291,1498.85376,291.91922Zm.59778,8.14505a1.9278,1.9278,0,0,0,1.19189-.36319c.431-.35757.73377-1.10983.63-2.614-.10462-1.50409-.51184-2.20618-.99341-2.499a1.95429,1.95429,0,0,0-1.24426-.18817Q1499.24378,297.232,1499.45154,300.06427Z" transform="translate(190.07407 75.70238)" style="fill:#1baaa4"/><path d="M1506.25867,283.79956q1.40606-.08213,2.81189-.15689.49035,9.22279.98059,18.44559-1.35737.07223-2.71485.15149Q1506.7976,293.01966,1506.25867,283.79956Z" transform="translate(190.07407 75.70238)" style="fill:#1baaa4"/><path d="M1517.21423,289.9115q-.05438-1.41888-.10888-2.83777a1.63962,1.63962,0,0,0-.40674-1.14133.82183.82183,0,0,0-.57813-.17843.85908.85908,0,0,0-.80188.71206,1.885,1.885,0,0,0-.07422.68241q.23274,5.54933.465,11.09863a1.60075,1.60075,0,0,0,.42725,1.13953.72758.72758,0,0,0,.538.17849.79621.79621,0,0,0,.78162-.709,1.73663,1.73663,0,0,0,.07519-.6821q-.0639-1.67014-.12817-3.3403-.54786.021-1.09522.04318-.0465-1.14267-.09253-2.28525,1.93232-.07814,3.86512-.14215.152,4.59654.30432,9.19318-.80493.0266-1.60962.05578-.17945-.43368-.35962-.8673a2.72221,2.72221,0,0,1-2.07117,1.16244,2.77675,2.77675,0,0,1-1.96374-.54437,3.39522,3.39522,0,0,1-1.01929-1.31235,5.0177,5.0177,0,0,1-.39758-1.99429q-.25653-5.43489-.51245-10.86975a4.86113,4.86113,0,0,1,.37329-2.005,3.4597,3.4597,0,0,1,1.02917-1.42981,3.65615,3.65615,0,0,1,2.16077-.72058,3.56908,3.56908,0,0,1,2.1853.54608,3.52048,3.52048,0,0,1,1.16663,1.34183,4.85835,4.85835,0,0,1,.53271,1.9686q.04688,1.4191.094,2.83825Q1518.60351,289.85819,1517.21423,289.9115Z" transform="translate(190.07407 75.70238)" style="fill:#1baaa4"/><path d="M1533.2666,301.37689q-.9157-5.79784-1.87012-11.59244l-.11206-.77807-.154.00186.14868,12.3887q-1.25829.01511-2.51648.03635-.156-9.23451-.31152-18.469,1.71972-.0291,3.43958-.047.878,4.21326,1.72973,8.42926.06758.48981.1355.97952l.05078-.00037q.0608-.49066.1217-.98132.79212-4.22763,1.61084-8.45276,1.71991-.00627,3.43995-.00143-.02564,9.23579-.05164,18.47156-1.25775-.00352-2.51562-.00092l-.02564-12.38959-.15515.00034q-.05053.38968-.1012.77954-.87249,5.80742-1.70569,11.61761Q1533.8454,301.37222,1533.2666,301.37689Z" transform="translate(190.07407 75.70238)" style="fill:#1baaa4"/><path d="M1542.36841,282.91043q3.21844.02929,6.43677.09744-.02967,1.39471-.05909,2.78943-1.80138-.038-3.60278-.064-.03516,2.42454-.06982,4.84909,1.28393.01845,2.568.04321l-.05713,2.96527q-1.27661-.02463-2.55359-.043-.03661,2.5378-.073,5.07562,1.75782.02532,3.51563.0625-.02985,1.39471-.05908,2.7894-3.10711-.06578-6.2146-.09411Q1542.28412,292.14582,1542.36841,282.91043Z" transform="translate(190.07407 75.70238)" style="fill:#1baaa4"/><path d="M1556.03711,301.693q-.56415-3.91823-1.14966-7.83536-.37023-.01221-.74011-.024-.1236,3.89355-.24756,7.78705-1.35846-.04312-2.717-.07923.24481-9.23259.48975-18.46512,1.40717.03726,2.8142.08207c3.364.10916,4.72046,2.00943,4.57544,5.49749-.07507,1.83371-.63,3.46976-1.70568,4.13346q.71355,4.50333,1.39624,9.00842Q1557.39533,301.74177,1556.03711,301.693Zm-1.80994-10.37082a1.96305,1.96305,0,0,0,1.32166-.35891,2.92516,2.92516,0,0,0,.82739-2.30942,2.96078,2.96078,0,0,0-.6665-2.387,1.95007,1.95007,0,0,0-1.30847-.42037Q1554.31409,288.58428,1554.22717,291.32214Z" transform="translate(190.07407 75.70238)" style="fill:#1baaa4"/><path d="M1566.51819,290.321q.07818-1.41774.156-2.83554a1.64351,1.64351,0,0,0-.29895-1.17431.82308.82308,0,0,0-.559-.23154.858.858,0,0,0-.86486.63428,1.88918,1.88918,0,0,0-.13746.67248l-.57128,11.09369a1.60088,1.60088,0,0,0,.31933,1.17438.72475.72475,0,0,0,.51917.22784.79738.79738,0,0,0,.84436-.63312,1.75791,1.75791,0,0,0,.13842-.67208q.09174-1.66891.1836-3.33774-.54731-.03012-1.09461-.05908.06062-1.142.12085-2.28391,1.93158.10218,3.86243.21863-.27668,4.59073-.55359,9.18155-.8042-.04843-1.6084-.09445-.13842-.44857-.27734-.89707a2.72115,2.72115,0,0,1-2.17065.96439,2.77742,2.77742,0,0,1-1.90479-.725,3.37675,3.37675,0,0,1-.89246-1.40158,5.03514,5.03514,0,0,1-.21008-2.02267q.251-5.43509.50232-10.87021a4.8712,4.8712,0,0,1,.55859-1.96143,3.46235,3.46235,0,0,1,1.15784-1.3277,3.659,3.659,0,0,1,2.219-.51611,3.573,3.573,0,0,1,2.12524.74735,3.52344,3.52344,0,0,1,1.03662,1.4447,4.85851,4.85851,0,0,1,.34741,2.00967q-.0855,1.41738-.1709,2.83469Q1567.90655,290.39732,1566.51819,290.321Z" transform="translate(190.07407 75.70238)" style="fill:#1baaa4"/><path d="M1573.051,284.07132q3.21331.214,6.4248.46677-.10932,1.39077-.219,2.78143-1.79737-.14145-3.59571-.27075-.17376,2.41859-.34778,4.83709,1.28175.09212,2.56311.19056l-.227,2.95712q-1.27386-.09783-2.5487-.18948-.182,2.53157-.364,5.06308,1.7549.12615,3.50879.26419-.10968,1.39077-.219,2.78143-3.10053-.244-6.20288-.45059Q1572.4372,293.2867,1573.051,284.07132Z" transform="translate(190.07407 75.70238)" style="fill:#1baaa4"/></g><g id="_Group_5" data-name="&lt;Group&gt;"><text transform="translate(1691.10734 398.30573)" style="font-size:14px;fill:#fff;font-family:LeagueGothic-Regular, League Gothic;letter-spacing:0.050013950892857144em">REPO &gt;1K S<tspan x="51.08496" y="0" style="letter-spacing:0.028041294642857144em">T</tspan><tspan x="55.90137" y="0" style="letter-spacing:0.04994419642857143em">ARS</tspan></text></g><circle cx="1687.40402" cy="393.32706" r="1.91666" style="fill:#fff"/><circle cx="1767.73735" cy="393.32706" r="1.91666" style="fill:#fff"/><path d="M876.21429,194.15172V303.84828a5,5,0,0,0,2.5,4.33012l95,54.84828a5,5,0,0,0,5,0l95-54.84828a5,5,0,0,0,2.5-4.33012V194.15172a5,5,0,0,0-2.5-4.33012l-95-54.84828a5,5,0,0,0-5,0l-95,54.84828A5,5,0,0,0,876.21429,194.15172Z" transform="translate(190.07407 75.70238)" style="fill:#4ebbb7"/><path d="M882.41719,197.61583V300.38417a5,5,0,0,0,2.5,4.33013l89,51.38417a5,5,0,0,0,5,0l89-51.38417a5,5,0,0,0,2.5-4.33013V197.61583a5,5,0,0,0-2.5-4.33013l-89-51.38417a5,5,0,0,0-5,0l-89,51.38417A5,5,0,0,0,882.41719,197.61583Z" transform="translate(190.07407 75.70238)" style="fill:none;stroke:#c5f466;stroke-miterlimit:10;stroke-width:4px"/><text x="190.07407" y="75.70238"></text><text transform="translate(1131.76244 317.65863)" style="font-size:13px;fill:#fff;font-family:SegoeUI-Bold, Segoe UI;font-weight:700;letter-spacing:-0.0800030048076923em">USING</text><rect x="1170.01248" y="308.03558" width="70" height="10" style="fill:#c5f466"/><text transform="translate(1156.88744 356.65863)" style="font-size:13px;fill:#fff;font-family:SegoeUI-Bold, Segoe UI;font-weight:700;letter-spacing:-0.0800030048076923em">A<tspan x="8.10059" y="0" style="letter-spacing:-0.0897686298076923em">R</tspan><tspan x="15.42041" y="0">CHITECTURE</tspan></text><rect x="1091.01248" y="347.03558" width="64" height="10" style="fill:#c5f466"/><text transform="translate(1089.01256 340.6137)" style="font-size:24px;fill:#fff;font-family:SegoeUI-Bold, Segoe UI;font-weight:700;letter-spacing:-0.07999674479166667em">MIC<tspan x="39.79102" y="0" style="letter-spacing:-0.08978271484375em">R</tspan><tspan x="53.3042" y="0">OSERVICE</tspan></text><rect x="1225.34582" y="368.41058" width="3.83333" height="3.83333" style="fill:none"/><circle cx="1227.26248" cy="370.32725" r="1.91667" style="fill:#fff"/><rect x="1215.76248" y="368.41058" width="3.83333" height="3.83333" style="fill:none"/><circle cx="1217.67915" cy="370.32725" r="1.91667" style="fill:#fff"/><rect x="1206.17915" y="368.41058" width="3.83333" height="3.83333" style="fill:none"/><circle cx="1208.09582" cy="370.32725" r="1.91667" style="fill:#fff"/><rect x="1196.59582" y="368.41058" width="3.83333" height="3.83333" style="fill:none"/><circle cx="1198.51248" cy="370.32725" r="1.91667" style="fill:#fff"/><rect x="1187.01248" y="368.41058" width="3.83333" height="3.83333" style="fill:none"/><circle cx="1188.92915" cy="370.32725" r="1.91667" style="fill:#fff"/><rect x="1177.42915" y="368.41058" width="3.83333" height="3.83333" style="fill:none"/><circle cx="1179.34582" cy="370.32725" r="1.91667" style="fill:#fff"/><rect x="1167.84582" y="368.41058" width="3.83333" height="3.83333" style="fill:none"/><circle cx="1169.76248" cy="370.32725" r="1.91667" style="fill:#fff"/><rect x="1158.26248" y="368.41058" width="3.83333" height="3.83333" style="fill:none"/><circle cx="1160.17915" cy="370.32725" r="1.91667" style="fill:#fff"/><rect x="1148.67915" y="368.41058" width="3.83333" height="3.83333" style="fill:none"/><circle cx="1150.59582" cy="370.32725" r="1.91667" style="fill:#fff"/><rect x="1139.09582" y="368.41058" width="3.83333" height="3.83333" style="fill:none"/><circle cx="1141.01248" cy="370.32725" r="1.91667" style="fill:#fff"/><rect x="1129.51248" y="368.41058" width="3.83333" height="3.83333" style="fill:none"/><circle cx="1131.42915" cy="370.32725" r="1.91667" style="fill:#fff"/><rect x="1119.92915" y="368.41058" width="3.83333" height="3.83333" style="fill:none"/><circle cx="1121.84582" cy="370.32725" r="1.91667" style="fill:#fff"/><rect x="1110.34582" y="368.41058" width="3.83333" height="3.83333" style="fill:none"/><circle cx="1112.26248" cy="370.32725" r="1.91667" style="fill:#fff"/><rect x="1100.76248" y="368.41058" width="3.83333" height="3.83333" style="fill:none"/><circle cx="1102.67915" cy="370.32725" r="1.91667" style="fill:#fff"/><text transform="translate(1130.76244 302.60785)" style="font-size:24px;fill:#fff;font-family:SegoeUI-Bold, Segoe UI;font-weight:700;letter-spacing:-0.07999674479166667em">FIRST TIME </text><rect x="904.25091" y="206.1457" width="32.625" height="39.25" transform="translate(884.86678 1222.03649) rotate(-90)" style="fill:#c5f466"/><path d="M593.70364,194.15172V303.84828a5,5,0,0,0,2.5,4.33012l95,54.84828a5,5,0,0,0,5,0l95-54.84828a5,5,0,0,0,2.5-4.33012V194.15172a5,5,0,0,0-2.5-4.33012l-95-54.84828a5,5,0,0,0-5,0l-95,54.84828A5,5,0,0,0,593.70364,194.15172Z" transform="translate(190.07407 75.70238)" style="fill:#f04e1f"/><path d="M599.90654,197.61583V300.38417a5,5,0,0,0,2.5,4.33013l89,51.38417a5,5,0,0,0,5,0l89-51.38417a5,5,0,0,0,2.5-4.33013V197.61583a5,5,0,0,0-2.5-4.33013l-89-51.38417a5,5,0,0,0-5,0l-89,51.38417A5,5,0,0,0,599.90654,197.61583Z" transform="translate(190.07407 75.70238)" style="fill:none;stroke:#ffc84d;stroke-miterlimit:10;stroke-width:4px"/><text x="190.07407" y="75.70238"></text><text transform="translate(806.52775 298.6586)" style="font-size:13px;fill:#fff;font-family:SegoeUI-Bold, Segoe UI;font-weight:700;letter-spacing:-0.1122295673076923em">A<tspan x="7.68164" y="0" style="letter-spacing:-0.0800030048076923em">WESOME FIRST</tspan></text><rect x="901.77771" y="289.03558" width="58" height="10" style="fill:#ffc84d"/><text transform="translate(861.65268 351.65863)" style="font-size:13px;fill:#fff;font-family:SegoeUI-Bold, Segoe UI;font-weight:700;letter-spacing:-0.0922100360576923em">C<tspan x="6.91357" y="0" style="letter-spacing:-0.0800030048076923em">ONTRIBUTION</tspan></text><rect x="804.77771" y="342.03558" width="53.125" height="10" style="fill:#ffc84d"/><text transform="translate(803.82981 330.83438)" style="font-size:27px;fill:#fff;font-family:SegoeUI-Bold, Segoe UI;font-weight:700;letter-spacing:-0.08000578703703703em">OPENSOU<tspan x="112.77393" y="0" style="letter-spacing:-0.0897533275462963em">R</tspan><tspan x="127.97705" y="0">CE</tspan></text><rect x="943.11104" y="369.41058" width="3.83333" height="3.83333" style="fill:none"/><circle cx="945.02771" cy="371.32725" r="1.91667" style="fill:#fff"/><rect x="933.52771" y="369.41058" width="3.83333" height="3.83333" style="fill:none"/><circle cx="935.44437" cy="371.32725" r="1.91667" style="fill:#fff"/><rect x="923.94437" y="369.41058" width="3.83333" height="3.83333" style="fill:none"/><circle cx="925.86104" cy="371.32725" r="1.91667" style="fill:#fff"/><rect x="914.36104" y="369.41058" width="3.83333" height="3.83333" style="fill:none"/><circle cx="916.27771" cy="371.32725" r="1.91667" style="fill:#fff"/><rect x="904.77771" y="369.41058" width="3.83333" height="3.83333" style="fill:none"/><circle cx="906.69437" cy="371.32725" r="1.91667" style="fill:#fff"/><rect x="895.19437" y="369.41058" width="3.83333" height="3.83333" style="fill:none"/><circle cx="897.11104" cy="371.32725" r="1.91667" style="fill:#fff"/><rect x="885.61104" y="369.41058" width="3.83333" height="3.83333" style="fill:none"/><circle cx="887.52771" cy="371.32725" r="1.91667" style="fill:#fff"/><rect x="876.02771" y="369.41058" width="3.83333" height="3.83333" style="fill:none"/><circle cx="877.94437" cy="371.32725" r="1.91667" style="fill:#fff"/><rect x="866.44437" y="369.41058" width="3.83333" height="3.83333" style="fill:none"/><circle cx="868.36104" cy="371.32725" r="1.91667" style="fill:#fff"/><rect x="856.86104" y="369.41058" width="3.83333" height="3.83333" style="fill:none"/><circle cx="858.77771" cy="371.32725" r="1.91667" style="fill:#fff"/><rect x="847.27771" y="369.41058" width="3.83333" height="3.83333" style="fill:none"/><circle cx="849.19437" cy="371.32725" r="1.91667" style="fill:#fff"/><rect x="837.69437" y="369.41058" width="3.83333" height="3.83333" style="fill:none"/><circle cx="839.61104" cy="371.32725" r="1.91667" style="fill:#fff"/><rect x="828.11104" y="369.41058" width="3.83333" height="3.83333" style="fill:none"/><circle cx="830.02771" cy="371.32725" r="1.91667" style="fill:#fff"/><rect x="818.52771" y="369.41058" width="3.83333" height="3.83333" style="fill:none"/><circle cx="820.44437" cy="371.32725" r="1.91667" style="fill:#fff"/><path d="M311.193,194.15172V303.84828a5,5,0,0,0,2.5,4.33012l95,54.84828a5,5,0,0,0,5,0l95-54.84828a5,5,0,0,0,2.5-4.33012V194.15172a5,5,0,0,0-2.5-4.33012l-95-54.84828a5,5,0,0,0-5,0l-95,54.84828A5,5,0,0,0,311.193,194.15172Z" transform="translate(190.07407 75.70238)" style="fill:#69d2e7"/><rect x="318.59453" y="192.23066" width="3.6" height="1.3" transform="translate(147.52824 358.74896) rotate(-45)" style="fill:none"/><rect x="318.69453" y="192.33066" width="3.4" height="1.1" transform="translate(873.40897 178.41712) rotate(135)" style="fill:#fff;stroke:#fff;stroke-miterlimit:10;stroke-width:0.200000002980232px"/><rect x="324.82991" y="188.63066" width="3.6" height="1.3" transform="translate(139.19385 264.37614) rotate(-30)" style="fill:none"/><rect x="324.92991" y="188.73066" width="3.4" height="1.1" transform="translate(894.21412 265.58994) rotate(150)" style="fill:#fff;stroke:#fff;stroke-miterlimit:10;stroke-width:0.200000002980232px"/><rect x="331.0653" y="185.03066" width="3.6" height="1.3" transform="translate(141.82924 267.01152) rotate(-30)" style="fill:none"/><rect x="331.1653" y="185.13066" width="3.4" height="1.1" transform="translate(904.0495 255.75456) rotate(150)" style="fill:#fff;stroke:#fff;stroke-miterlimit:10;stroke-width:0.200000002980232px"/><rect x="337.30068" y="181.43066" width="3.6" height="1.3" transform="translate(144.46462 269.6469) rotate(-30)" style="fill:none"/><rect x="337.40068" y="181.53066" width="3.4" height="1.1" transform="translate(913.88488 245.91918) rotate(150)" style="fill:#fff;stroke:#fff;stroke-miterlimit:10;stroke-width:0.200000002980232px"/><rect x="343.53606" y="177.83066" width="3.6" height="1.3" transform="translate(147.1 272.28229) rotate(-30)" style="fill:none"/><rect x="343.63606" y="177.93066" width="3.4" height="1.1" transform="translate(923.72027 236.08379) rotate(150)" style="fill:#fff;stroke:#fff;stroke-miterlimit:10;stroke-width:0.200000002980232px"/><rect x="349.77145" y="174.23066" width="3.6" height="1.3" transform="translate(149.73538 274.91767) rotate(-30)" style="fill:none"/><rect x="349.87145" y="174.33066" width="3.4" height="1.1" transform="translate(933.55565 226.24841) rotate(150)" style="fill:#fff;stroke:#fff;stroke-miterlimit:10;stroke-width:0.200000002980232px"/><rect x="356.00683" y="170.63066" width="3.6" height="1.3" transform="translate(152.37077 277.55305) rotate(-30)" style="fill:none"/><rect x="356.10683" y="170.73066" width="3.4" height="1.1" transform="translate(943.39103 216.41303) rotate(150)" style="fill:#fff;stroke:#fff;stroke-miterlimit:10;stroke-width:0.200000002980232px"/><rect x="362.24221" y="167.03066" width="3.6" height="1.3" transform="translate(155.00615 280.18843) rotate(-30)" style="fill:none"/><rect x="362.34221" y="167.13066" width="3.4" height="1.1" transform="translate(953.22642 206.57765) rotate(150)" style="fill:#fff;stroke:#fff;stroke-miterlimit:10;stroke-width:0.200000002980232px"/><rect x="368.47759" y="163.43066" width="3.6" height="1.3" transform="translate(157.64153 282.82382) rotate(-30)" style="fill:none"/><rect x="368.57759" y="163.53066" width="3.4" height="1.1" transform="translate(963.0618 196.74226) rotate(150)" style="fill:#fff;stroke:#fff;stroke-miterlimit:10;stroke-width:0.200000002980232px"/><rect x="374.71298" y="159.83066" width="3.6" height="1.3" transform="translate(160.27692 285.4592) rotate(-30)" style="fill:none"/><rect x="374.81298" y="159.93066" width="3.4" height="1.1" transform="translate(972.89718 186.90688) rotate(150)" style="fill:#fff;stroke:#fff;stroke-miterlimit:10;stroke-width:0.200000002980232px"/><rect x="380.94836" y="156.23066" width="3.6" height="1.3" transform="translate(162.9123 288.09458) rotate(-30)" style="fill:none"/><rect x="381.04836" y="156.33066" width="3.4" height="1.1" transform="translate(982.73257 177.0715) rotate(150)" style="fill:#fff;stroke:#fff;stroke-miterlimit:10;stroke-width:0.200000002980232px"/><rect x="387.18374" y="152.63066" width="3.6" height="1.3" transform="translate(165.54768 290.72997) rotate(-30)" style="fill:none"/><rect x="387.28374" y="152.73066" width="3.4" height="1.1" transform="translate(992.56795 167.23611) rotate(150)" style="fill:#fff;stroke:#fff;stroke-miterlimit:10;stroke-width:0.200000002980232px"/><rect x="393.41913" y="149.03066" width="3.6" height="1.3" transform="translate(168.18307 293.36535) rotate(-30)" style="fill:none"/><rect x="393.51913" y="149.13066" width="3.4" height="1.1" transform="translate(1002.40333 157.40073) rotate(150)" style="fill:#fff;stroke:#fff;stroke-miterlimit:10;stroke-width:0.200000002980232px"/><rect x="399.65451" y="145.43066" width="3.6" height="1.3" transform="translate(170.81845 296.00073) rotate(-30)" style="fill:none"/><rect x="399.75451" y="145.53066" width="3.4" height="1.1" transform="translate(1012.23871 147.56535) rotate(150)" style="fill:#fff;stroke:#fff;stroke-miterlimit:10;stroke-width:0.200000002980232px"/><rect x="405.88989" y="141.83066" width="3.6" height="1.3" transform="translate(173.45383 298.63612) rotate(-30)" style="fill:none"/><rect x="405.98989" y="141.93066" width="3.4" height="1.1" transform="translate(1022.0741 137.72996) rotate(150)" style="fill:#fff;stroke:#fff;stroke-miterlimit:10;stroke-width:0.200000002980232px"/><rect x="413.94515" y="140.62239" width="1.3" height="3.6" transform="translate(274.03024 505.96351) rotate(-60)" style="fill:none"/><rect x="412.89515" y="141.87239" width="3.4" height="1.1" transform="translate(892.50796 548.76375) rotate(-150)" style="fill:#fff;stroke:#fff;stroke-miterlimit:10;stroke-width:0.200000002980232px"/><rect x="420.18053" y="144.22239" width="1.3" height="3.6" transform="translate(274.03024 513.16351) rotate(-60)" style="fill:none"/><rect x="419.13053" y="145.47239" width="3.4" height="1.1" transform="translate(902.34334 558.59914) rotate(-150)" style="fill:#fff;stroke:#fff;stroke-miterlimit:10;stroke-width:0.200000002980232px"/><rect x="426.41591" y="147.82239" width="1.3" height="3.6" transform="translate(274.03024 520.36351) rotate(-60)" style="fill:none"/><rect x="425.36591" y="149.07239" width="3.4" height="1.1" transform="translate(912.17872 568.43452) rotate(-150)" style="fill:#fff;stroke:#fff;stroke-miterlimit:10;stroke-width:0.200000002980232px"/><rect x="432.6513" y="151.42239" width="1.3" height="3.6" transform="translate(274.03024 527.56351) rotate(-60)" style="fill:none"/><rect x="431.6013" y="152.67239" width="3.4" height="1.1" transform="translate(922.01411 578.2699) rotate(-150)" style="fill:#fff;stroke:#fff;stroke-miterlimit:10;stroke-width:0.200000002980232px"/><rect x="438.88668" y="155.02239" width="1.3" height="3.6" transform="translate(274.03024 534.76351) rotate(-60)" style="fill:none"/><rect x="437.83668" y="156.27239" width="3.4" height="1.1" transform="translate(931.84949 588.10529) rotate(-150)" style="fill:#fff;stroke:#fff;stroke-miterlimit:10;stroke-width:0.200000002980232px"/><rect x="445.12206" y="158.62239" width="1.3" height="3.6" transform="translate(274.03024 541.96351) rotate(-60)" style="fill:none"/><rect x="444.07206" y="159.87239" width="3.4" height="1.1" transform="translate(941.68487 597.94067) rotate(-150)" style="fill:#fff;stroke:#fff;stroke-miterlimit:10;stroke-width:0.200000002980232px"/><rect x="451.35745" y="162.22239" width="1.3" height="3.6" transform="translate(274.03024 549.16351) rotate(-60)" style="fill:none"/><rect x="450.30745" y="163.47239" width="3.4" height="1.1" transform="translate(951.52025 607.77605) rotate(-150)" style="fill:#fff;stroke:#fff;stroke-miterlimit:10;stroke-width:0.200000002980232px"/><rect x="457.59283" y="165.82239" width="1.3" height="3.6" transform="translate(274.03024 556.36351) rotate(-60)" style="fill:none"/><rect x="456.54283" y="167.07239" width="3.4" height="1.1" transform="translate(961.35564 617.61144) rotate(-150)" style="fill:#fff;stroke:#fff;stroke-miterlimit:10;stroke-width:0.200000002980232px"/><rect x="463.82821" y="169.42239" width="1.3" height="3.6" transform="translate(274.03024 563.56351) rotate(-60)" style="fill:none"/><rect x="462.77821" y="170.67239" width="3.4" height="1.1" transform="translate(971.19102 627.44682) rotate(-150)" style="fill:#fff;stroke:#fff;stroke-miterlimit:10;stroke-width:0.200000002980232px"/><rect x="470.0636" y="173.02239" width="1.3" height="3.6" transform="translate(274.03024 570.76351) rotate(-60)" style="fill:none"/><rect x="469.0136" y="174.27239" width="3.4" height="1.1" transform="translate(981.0264 637.2822) rotate(-150)" style="fill:#fff;stroke:#fff;stroke-miterlimit:10;stroke-width:0.200000002980232px"/><rect x="476.29898" y="176.62239" width="1.3" height="3.6" transform="translate(274.03024 577.96351) rotate(-60)" style="fill:none"/><rect x="475.24898" y="177.87239" width="3.4" height="1.1" transform="translate(990.86179 647.11758) rotate(-150)" style="fill:#fff;stroke:#fff;stroke-miterlimit:10;stroke-width:0.200000002980232px"/><rect x="482.53436" y="180.22239" width="1.3" height="3.6" transform="translate(274.03024 585.16351) rotate(-60)" style="fill:none"/><rect x="481.48436" y="181.47239" width="3.4" height="1.1" transform="translate(1000.69717 656.95297) rotate(-150)" style="fill:#fff;stroke:#fff;stroke-miterlimit:10;stroke-width:0.200000002980232px"/><rect x="488.76974" y="183.82239" width="1.3" height="3.6" transform="translate(274.03024 592.36351) rotate(-60)" style="fill:none"/><rect x="487.71974" y="185.07239" width="3.4" height="1.1" transform="translate(1010.53255 666.78835) rotate(-150)" style="fill:#fff;stroke:#fff;stroke-miterlimit:10;stroke-width:0.200000002980232px"/><rect x="495.00513" y="187.42239" width="1.3" height="3.6" transform="translate(274.03024 599.56351) rotate(-60)" style="fill:none"/><rect x="493.95513" y="188.67239" width="3.4" height="1.1" transform="translate(1020.36794 676.62373) rotate(-150)" style="fill:#fff;stroke:#fff;stroke-miterlimit:10;stroke-width:0.200000002980232px"/><rect x="501.24051" y="191.02239" width="1.3" height="3.6" transform="translate(274.03024 606.76351) rotate(-60)" style="fill:none"/><rect x="500.19051" y="192.27239" width="3.4" height="1.1" transform="translate(1030.20332 686.45912) rotate(-150)" style="fill:#fff;stroke:#fff;stroke-miterlimit:10;stroke-width:0.200000002980232px"/><rect x="694.61705" y="272.79159" width="1.3" height="3.6" style="fill:none"/><rect x="503.49298" y="198.33921" width="3.4" height="1.1" transform="translate(496.37784 779.78457) rotate(-90)" style="fill:#fff;stroke:#fff;stroke-miterlimit:10;stroke-width:0.200000002980232px"/><rect x="694.61705" y="279.99159" width="1.3" height="3.6" style="fill:none"/><rect x="503.49298" y="205.53921" width="3.4" height="1.1" transform="translate(489.17784 786.98457) rotate(-90)" style="fill:#fff;stroke:#fff;stroke-miterlimit:10;stroke-width:0.200000002980232px"/><rect x="694.61705" y="287.19159" width="1.3" height="3.6" style="fill:none"/><rect x="503.49298" y="212.73921" width="3.4" height="1.1" transform="translate(481.97784 794.18457) rotate(-90)" style="fill:#fff;stroke:#fff;stroke-miterlimit:10;stroke-width:0.200000002980232px"/><rect x="694.61705" y="294.39159" width="1.3" height="3.6" style="fill:none"/><rect x="503.49298" y="219.93921" width="3.4" height="1.1" transform="translate(474.77784 801.38457) rotate(-90)" style="fill:#fff;stroke:#fff;stroke-miterlimit:10;stroke-width:0.200000002980232px"/><rect x="694.61705" y="301.59159" width="1.3" height="3.6" style="fill:none"/><rect x="503.49298" y="227.13921" width="3.4" height="1.1" transform="translate(467.57784 808.58457) rotate(-90)" style="fill:#fff;stroke:#fff;stroke-miterlimit:10;stroke-width:0.200000002980232px"/><rect x="694.61705" y="308.79159" width="1.3" height="3.6" style="fill:none"/><rect x="503.49298" y="234.33921" width="3.4" height="1.1" transform="translate(460.37784 815.78457) rotate(-90)" style="fill:#fff;stroke:#fff;stroke-miterlimit:10;stroke-width:0.200000002980232px"/><rect x="694.61705" y="315.99159" width="1.3" height="3.6" style="fill:none"/><rect x="503.49298" y="241.53921" width="3.4" height="1.1" transform="translate(453.17784 822.98457) rotate(-90)" style="fill:#fff;stroke:#fff;stroke-miterlimit:10;stroke-width:0.200000002980232px"/><rect x="694.61705" y="323.19159" width="1.3" height="3.6" style="fill:none"/><rect x="503.49298" y="248.73921" width="3.4" height="1.1" transform="translate(445.97784 830.18457) rotate(-90)" style="fill:#fff;stroke:#fff;stroke-miterlimit:10;stroke-width:0.200000002980232px"/><rect x="694.61705" y="330.39159" width="1.3" height="3.6" style="fill:none"/><rect x="503.49298" y="255.93921" width="3.4" height="1.1" transform="translate(438.77784 837.38457) rotate(-90)" style="fill:#fff;stroke:#fff;stroke-miterlimit:10;stroke-width:0.200000002980232px"/><rect x="694.61705" y="337.59159" width="1.3" height="3.6" style="fill:none"/><rect x="503.49298" y="263.13921" width="3.4" height="1.1" transform="translate(431.57784 844.58457) rotate(-90)" style="fill:#fff;stroke:#fff;stroke-miterlimit:10;stroke-width:0.200000002980232px"/><rect x="694.61705" y="344.79159" width="1.3" height="3.6" style="fill:none"/><rect x="503.49298" y="270.33921" width="3.4" height="1.1" transform="translate(424.37784 851.78457) rotate(-90)" style="fill:#fff;stroke:#fff;stroke-miterlimit:10;stroke-width:0.200000002980232px"/><rect x="694.61705" y="351.99159" width="1.3" height="3.6" style="fill:none"/><rect x="503.49298" y="277.53921" width="3.4" height="1.1" transform="translate(417.17784 858.98457) rotate(-90)" style="fill:#fff;stroke:#fff;stroke-miterlimit:10;stroke-width:0.200000002980232px"/><rect x="694.61705" y="359.19159" width="1.3" height="3.6" style="fill:none"/><rect x="503.49298" y="284.73921" width="3.4" height="1.1" transform="translate(409.97784 866.18457) rotate(-90)" style="fill:#fff;stroke:#fff;stroke-miterlimit:10;stroke-width:0.200000002980232px"/><rect x="694.61705" y="366.39159" width="1.3" height="3.6" style="fill:none"/><rect x="503.49298" y="291.93921" width="3.4" height="1.1" transform="translate(402.77784 873.38458) rotate(-90)" style="fill:#fff;stroke:#fff;stroke-miterlimit:10;stroke-width:0.200000002980232px"/><rect x="694.61705" y="373.59159" width="1.3" height="3.6" style="fill:none"/><rect x="503.49298" y="299.13921" width="3.4" height="1.1" transform="translate(395.57784 880.58458) rotate(-90)" style="fill:#fff;stroke:#fff;stroke-miterlimit:10;stroke-width:0.200000002980232px"/><rect x="499.58958" y="304.81682" width="3.6" height="1.3" transform="translate(104.51413 367.32196) rotate(-30)" style="fill:none"/><rect x="499.68958" y="304.91682" width="3.4" height="1.1" transform="translate(104.51413 367.32196) rotate(-30)" style="fill:#fff;stroke:#fff;stroke-miterlimit:10;stroke-width:0.200000002980232px"/><rect x="493.3542" y="308.41682" width="3.6" height="1.3" transform="translate(101.87875 364.68658) rotate(-30)" style="fill:none"/><rect x="493.4542" y="308.51682" width="3.4" height="1.1" transform="translate(101.87875 364.68658) rotate(-30)" style="fill:#fff;stroke:#fff;stroke-miterlimit:10;stroke-width:0.200000002980232px"/><rect x="487.11881" y="312.01682" width="3.6" height="1.3" transform="translate(99.24336 362.0512) rotate(-30)" style="fill:none"/><rect x="487.21881" y="312.11682" width="3.4" height="1.1" transform="translate(99.24336 362.0512) rotate(-30)" style="fill:#fff;stroke:#fff;stroke-miterlimit:10;stroke-width:0.200000002980232px"/><rect x="480.88343" y="315.61682" width="3.6" height="1.3" transform="translate(96.60798 359.41582) rotate(-30)" style="fill:none"/><rect x="480.98343" y="315.71682" width="3.4" height="1.1" transform="translate(96.60798 359.41582) rotate(-30)" style="fill:#fff;stroke:#fff;stroke-miterlimit:10;stroke-width:0.200000002980232px"/><rect x="474.64805" y="319.21682" width="3.6" height="1.3" transform="translate(93.9726 356.78043) rotate(-30)" style="fill:none"/><rect x="474.74805" y="319.31682" width="3.4" height="1.1" transform="translate(93.9726 356.78043) rotate(-30)" style="fill:#fff;stroke:#fff;stroke-miterlimit:10;stroke-width:0.200000002980232px"/><rect x="468.41267" y="322.81682" width="3.6" height="1.3" transform="translate(91.33721 354.14505) rotate(-30)" style="fill:none"/><rect x="468.51267" y="322.91682" width="3.4" height="1.1" transform="translate(91.33721 354.14505) rotate(-30)" style="fill:#fff;stroke:#fff;stroke-miterlimit:10;stroke-width:0.200000002980232px"/><rect x="462.17728" y="326.41682" width="3.6" height="1.3" transform="translate(88.70183 351.50967) rotate(-30)" style="fill:none"/><rect x="462.27728" y="326.51682" width="3.4" height="1.1" transform="translate(88.70183 351.50967) rotate(-30)" style="fill:#fff;stroke:#fff;stroke-miterlimit:10;stroke-width:0.200000002980232px"/><rect x="455.9419" y="330.01682" width="3.6" height="1.3" transform="translate(86.06645 348.87428) rotate(-30)" style="fill:none"/><rect x="456.0419" y="330.11682" width="3.4" height="1.1" transform="translate(86.06645 348.87428) rotate(-30)" style="fill:#fff;stroke:#fff;stroke-miterlimit:10;stroke-width:0.200000002980232px"/><rect x="449.70652" y="333.61682" width="3.6" height="1.3" transform="translate(83.43107 346.2389) rotate(-30)" style="fill:none"/><rect x="449.80652" y="333.71682" width="3.4" height="1.1" transform="translate(83.43107 346.2389) rotate(-30)" style="fill:#fff;stroke:#fff;stroke-miterlimit:10;stroke-width:0.200000002980232px"/><rect x="443.47113" y="337.21682" width="3.6" height="1.3" transform="translate(80.79568 343.60352) rotate(-30)" style="fill:none"/><rect x="443.57113" y="337.31682" width="3.4" height="1.1" transform="translate(80.79568 343.60352) rotate(-30)" style="fill:#fff;stroke:#fff;stroke-miterlimit:10;stroke-width:0.200000002980232px"/><rect x="437.23575" y="340.81682" width="3.6" height="1.3" transform="translate(78.1603 340.96813) rotate(-30)" style="fill:none"/><rect x="437.33575" y="340.91682" width="3.4" height="1.1" transform="translate(78.1603 340.96813) rotate(-30)" style="fill:#fff;stroke:#fff;stroke-miterlimit:10;stroke-width:0.200000002980232px"/><rect x="431.00037" y="344.41682" width="3.6" height="1.3" transform="translate(75.52492 338.33275) rotate(-30)" style="fill:none"/><rect x="431.10037" y="344.51682" width="3.4" height="1.1" transform="translate(75.52492 338.33275) rotate(-30)" style="fill:#fff;stroke:#fff;stroke-miterlimit:10;stroke-width:0.200000002980232px"/><rect x="424.76498" y="348.01682" width="3.6" height="1.3" transform="translate(72.88953 335.69737) rotate(-30)" style="fill:none"/><rect x="424.86498" y="348.11682" width="3.4" height="1.1" transform="translate(72.88953 335.69737) rotate(-30)" style="fill:#fff;stroke:#fff;stroke-miterlimit:10;stroke-width:0.200000002980232px"/><rect x="418.5296" y="351.61682" width="3.6" height="1.3" transform="translate(70.25415 333.06199) rotate(-30)" style="fill:none"/><rect x="418.6296" y="351.71682" width="3.4" height="1.1" transform="translate(70.25415 333.06199) rotate(-30)" style="fill:#fff;stroke:#fff;stroke-miterlimit:10;stroke-width:0.200000002980232px"/><rect x="412.29422" y="355.21682" width="3.6" height="1.3" transform="translate(67.61877 330.4266) rotate(-30)" style="fill:none"/><rect x="412.39422" y="355.31682" width="3.4" height="1.1" transform="translate(67.61877 330.4266) rotate(-30)" style="fill:#fff;stroke:#fff;stroke-miterlimit:10;stroke-width:0.200000002980232px"/><rect x="406.53896" y="353.43013" width="1.3" height="3.6" transform="translate(86.03024 605.95343) rotate(-60)" style="fill:none"/><rect x="405.48896" y="354.68013" width="3.4" height="1.1" transform="translate(422.24211 -80.30029) rotate(30)" style="fill:#fff;stroke:#fff;stroke-miterlimit:10;stroke-width:0.200000002980232px"/><rect x="400.30358" y="349.83013" width="1.3" height="3.6" transform="translate(86.03024 598.75343) rotate(-60)" style="fill:none"/><rect x="399.25358" y="351.08013" width="3.4" height="1.1" transform="translate(419.60673 -77.6649) rotate(30)" style="fill:#fff;stroke:#fff;stroke-miterlimit:10;stroke-width:0.200000002980232px"/><rect x="394.0682" y="346.23013" width="1.3" height="3.6" transform="translate(86.03024 591.55343) rotate(-60)" style="fill:none"/><rect x="393.0182" y="347.48013" width="3.4" height="1.1" transform="translate(416.97135 -75.02952) rotate(30)" style="fill:#fff;stroke:#fff;stroke-miterlimit:10;stroke-width:0.200000002980232px"/><rect x="387.83281" y="342.63013" width="1.3" height="3.6" transform="translate(86.03024 584.35343) rotate(-60)" style="fill:none"/><rect x="386.78281" y="343.88013" width="3.4" height="1.1" transform="translate(414.33596 -72.39414) rotate(30)" style="fill:#fff;stroke:#fff;stroke-miterlimit:10;stroke-width:0.200000002980232px"/><rect x="381.59743" y="339.03013" width="1.3" height="3.6" transform="translate(86.03024 577.15343) rotate(-60)" style="fill:none"/><rect x="380.54743" y="340.28013" width="3.4" height="1.1" transform="translate(411.70058 -69.75876) rotate(30)" style="fill:#fff;stroke:#fff;stroke-miterlimit:10;stroke-width:0.200000002980232px"/><rect x="375.36205" y="335.43013" width="1.3" height="3.6" transform="translate(86.03024 569.95343) rotate(-60)" style="fill:none"/><rect x="374.31205" y="336.68013" width="3.4" height="1.1" transform="translate(409.0652 -67.12337) rotate(30)" style="fill:#fff;stroke:#fff;stroke-miterlimit:10;stroke-width:0.200000002980232px"/><rect x="369.12666" y="331.83013" width="1.3" height="3.6" transform="translate(86.03024 562.75343) rotate(-60)" style="fill:none"/><rect x="368.07666" y="333.08013" width="3.4" height="1.1" transform="translate(406.42982 -64.48799) rotate(30)" style="fill:#fff;stroke:#fff;stroke-miterlimit:10;stroke-width:0.200000002980232px"/><rect x="362.89128" y="328.23013" width="1.3" height="3.6" transform="translate(86.03024 555.55343) rotate(-60)" style="fill:none"/><rect x="361.84128" y="329.48013" width="3.4" height="1.1" transform="translate(403.79443 -61.85261) rotate(30)" style="fill:#fff;stroke:#fff;stroke-miterlimit:10;stroke-width:0.200000002980232px"/><rect x="356.6559" y="324.63013" width="1.3" height="3.6" transform="translate(86.03024 548.35343) rotate(-60)" style="fill:none"/><rect x="355.6059" y="325.88013" width="3.4" height="1.1" transform="translate(401.15905 -59.21722) rotate(30)" style="fill:#fff;stroke:#fff;stroke-miterlimit:10;stroke-width:0.200000002980232px"/><rect x="350.42052" y="321.03013" width="1.3" height="3.6" transform="translate(86.03024 541.15343) rotate(-60)" style="fill:none"/><rect x="349.37052" y="322.28013" width="3.4" height="1.1" transform="translate(398.52367 -56.58184) rotate(30)" style="fill:#fff;stroke:#fff;stroke-miterlimit:10;stroke-width:0.200000002980232px"/><rect x="344.18513" y="317.43013" width="1.3" height="3.6" transform="translate(86.03024 533.95343) rotate(-60)" style="fill:none"/><rect x="343.13513" y="318.68013" width="3.4" height="1.1" transform="translate(395.88828 -53.94646) rotate(30)" style="fill:#fff;stroke:#fff;stroke-miterlimit:10;stroke-width:0.200000002980232px"/><rect x="337.94975" y="313.83013" width="1.3" height="3.6" transform="translate(86.03024 526.75343) rotate(-60)" style="fill:none"/><rect x="336.89975" y="315.08013" width="3.4" height="1.1" transform="translate(393.2529 -51.31108) rotate(30)" style="fill:#fff;stroke:#fff;stroke-miterlimit:10;stroke-width:0.200000002980232px"/><rect x="331.71437" y="310.23013" width="1.3" height="3.6" transform="translate(86.03024 519.55343) rotate(-60)" style="fill:none"/><rect x="330.66437" y="311.48013" width="3.4" height="1.1" transform="translate(390.61752 -48.67569) rotate(30)" style="fill:#fff;stroke:#fff;stroke-miterlimit:10;stroke-width:0.200000002980232px"/><rect x="325.47898" y="306.63013" width="1.3" height="3.6" transform="translate(86.03024 512.35343) rotate(-60)" style="fill:none"/><rect x="324.42898" y="307.88013" width="3.4" height="1.1" transform="translate(387.98214 -46.04031) rotate(30)" style="fill:#fff;stroke:#fff;stroke-miterlimit:10;stroke-width:0.200000002980232px"/><rect x="319.2436" y="303.03013" width="1.3" height="3.6" transform="translate(86.03024 505.15343) rotate(-60)" style="fill:none"/><rect x="318.1936" y="304.28013" width="3.4" height="1.1" transform="translate(385.34675 -43.40493) rotate(30)" style="fill:#fff;stroke:#fff;stroke-miterlimit:10;stroke-width:0.200000002980232px"/><rect x="506.61705" y="372.31821" width="1.3" height="3.6" style="fill:none"/><rect x="315.49298" y="297.86583" width="3.4" height="1.1" transform="translate(805.68288 56.92523) rotate(90)" style="fill:#fff;stroke:#fff;stroke-miterlimit:10;stroke-width:0.200000002980232px"/><rect x="506.61705" y="365.11821" width="1.3" height="3.6" style="fill:none"/><rect x="315.49298" y="290.66583" width="3.4" height="1.1" transform="translate(798.48288 49.72523) rotate(90)" style="fill:#fff;stroke:#fff;stroke-miterlimit:10;stroke-width:0.200000002980232px"/><rect x="506.61705" y="357.91821" width="1.3" height="3.6" style="fill:none"/><rect x="315.49298" y="283.46583" width="3.4" height="1.1" transform="translate(791.28288 42.52523) rotate(90)" style="fill:#fff;stroke:#fff;stroke-miterlimit:10;stroke-width:0.200000002980232px"/><rect x="506.61705" y="350.71821" width="1.3" height="3.6" style="fill:none"/><rect x="315.49298" y="276.26583" width="3.4" height="1.1" transform="translate(784.08288 35.32523) rotate(90)" style="fill:#fff;stroke:#fff;stroke-miterlimit:10;stroke-width:0.200000002980232px"/><rect x="506.61705" y="343.51821" width="1.3" height="3.6" style="fill:none"/><rect x="315.49298" y="269.06583" width="3.4" height="1.1" transform="translate(776.88288 28.12523) rotate(90)" style="fill:#fff;stroke:#fff;stroke-miterlimit:10;stroke-width:0.200000002980232px"/><rect x="506.61705" y="336.31821" width="1.3" height="3.6" style="fill:none"/><rect x="315.49298" y="261.86583" width="3.4" height="1.1" transform="translate(769.68288 20.92522) rotate(90)" style="fill:#fff;stroke:#fff;stroke-miterlimit:10;stroke-width:0.200000002980232px"/><rect x="506.61705" y="329.11821" width="1.3" height="3.6" style="fill:none"/><rect x="315.49298" y="254.66583" width="3.4" height="1.1" transform="translate(762.48288 13.72522) rotate(90)" style="fill:#fff;stroke:#fff;stroke-miterlimit:10;stroke-width:0.200000002980232px"/><rect x="506.61705" y="321.91821" width="1.3" height="3.6" style="fill:none"/><rect x="315.49298" y="247.46583" width="3.4" height="1.1" transform="translate(755.28288 6.52522) rotate(90)" style="fill:#fff;stroke:#fff;stroke-miterlimit:10;stroke-width:0.200000002980232px"/><rect x="506.61705" y="314.71821" width="1.3" height="3.6" style="fill:none"/><rect x="315.49298" y="240.26583" width="3.4" height="1.1" transform="translate(748.08288 -0.67478) rotate(90)" style="fill:#fff;stroke:#fff;stroke-miterlimit:10;stroke-width:0.200000002980232px"/><rect x="506.61705" y="307.51821" width="1.3" height="3.6" style="fill:none"/><rect x="315.49298" y="233.06583" width="3.4" height="1.1" transform="translate(740.88288 -7.87478) rotate(90)" style="fill:#fff;stroke:#fff;stroke-miterlimit:10;stroke-width:0.200000002980232px"/><rect x="506.61705" y="300.31821" width="1.3" height="3.6" style="fill:none"/><rect x="315.49298" y="225.86583" width="3.4" height="1.1" transform="translate(733.68288 -15.07478) rotate(90)" style="fill:#fff;stroke:#fff;stroke-miterlimit:10;stroke-width:0.200000002980232px"/><rect x="506.61705" y="293.11821" width="1.3" height="3.6" style="fill:none"/><rect x="315.49298" y="218.66583" width="3.4" height="1.1" transform="translate(726.48288 -22.27478) rotate(90)" style="fill:#fff;stroke:#fff;stroke-miterlimit:10;stroke-width:0.200000002980232px"/><rect x="506.61705" y="285.91821" width="1.3" height="3.6" style="fill:none"/><rect x="315.49298" y="211.46583" width="3.4" height="1.1" transform="translate(719.28288 -29.47478) rotate(90)" style="fill:#fff;stroke:#fff;stroke-miterlimit:10;stroke-width:0.200000002980232px"/><rect x="506.61705" y="278.71821" width="1.3" height="3.6" style="fill:none"/><rect x="315.49298" y="204.26583" width="3.4" height="1.1" transform="translate(712.08288 -36.67478) rotate(90)" style="fill:#fff;stroke:#fff;stroke-miterlimit:10;stroke-width:0.200000002980232px"/><rect x="506.61705" y="271.51821" width="1.3" height="3.6" style="fill:none"/><rect x="315.49298" y="197.06583" width="3.4" height="1.1" transform="translate(704.88288 -43.87478) rotate(90)" style="fill:#fff;stroke:#fff;stroke-miterlimit:10;stroke-width:0.200000002980232px"/><path d="M323.193,201.07993v95.84014a5,5,0,0,0,2.5,4.33013l83,47.92007a5,5,0,0,0,5,0l83-47.92007a5,5,0,0,0,2.5-4.33013V201.07993a5,5,0,0,0-2.5-4.33013l-83-47.92007a5,5,0,0,0-5,0l-83,47.92007A5,5,0,0,0,323.193,201.07993Z" transform="translate(190.07407 75.70238)" style="fill:#f38630"/><g style="clip-path:url(#clip-path)"><path d="M321.193,198.85988V297.0094a5,5,0,0,0,2.5,4.33013l85,49.07476a5,5,0,0,0,5,0l85-49.07476a5,5,0,0,0,2.5-4.33013V198.85988a5,5,0,0,0-2.5-4.33013l-85-49.07476a5,5,0,0,0-5,0l-85,49.07476A5,5,0,0,0,321.193,198.85988Z" transform="translate(190.07407 75.70238)" style="fill:#69d2e7"/></g><text transform="translate(531.64228 346.71644) rotate(-1.72608) scale(1 1.27999)" style="font-size:34px;fill:#fff;font-family:SegoeUI-Bold, Segoe UI;font-weight:700;letter-spacing:0.5522030101102942em">L<tspan x="35.88188" y="-3.47658" style="letter-spacing:0.5520163143382353em">E</tspan><tspan x="72.42827" y="-7.26056" style="letter-spacing:0.5507668887867647em">A</tspan><tspan x="114.73413" y="-11.37488" style="letter-spacing:0.5505083869485294em">D</tspan></text><text transform="matrix(0.99788, -0.06499, 0.08318, 1.27729, 520.40396, 295.34677)" style="font-size:9px;fill:#fff;font-family:SegoeUI-Bold, Segoe UI;font-weight:700;letter-spacing:0.029730902777777776em">F<tspan x="4.93542" y="-0.27454">I</tspan><tspan x="8.03606" y="-0.58986" style="letter-spacing:0.028971354166666668em">R</tspan><tspan x="14.15161" y="-0.97952" style="letter-spacing:0.028971354166666668em">S</tspan><tspan x="19.44109" y="-1.34872" style="letter-spacing:0.028971354166666668em">T</tspan><tspan x="24.96769" y="-1.6315" style="letter-spacing:0.030381944444444444em"> </tspan><tspan x="27.70157" y="-1.92175" style="letter-spacing:0.029296875em">P</tspan><tspan x="33.47016" y="-2.32829" style="letter-spacing:0.029296875em">R</tspan><tspan x="39.58092" y="-2.77813" style="letter-spacing:0.029296875em">O</tspan><tspan x="46.64762" y="-3.16541" style="letter-spacing:0.029947916666666668em">J</tspan><tspan x="50.90571" y="-3.48326" style="letter-spacing:0.029947916666666668em">E</tspan><tspan x="55.93907" y="-3.85486" style="letter-spacing:0.029079861111111112em">C</tspan><tspan x="61.79591" y="-4.24369" style="letter-spacing:0.029079861111111112em">T</tspan></text><polygon points="678.918 350.215 680.927 354.286 685.42 354.938 682.169 358.107 682.936 362.581 678.918 360.469 674.9 362.581 675.668 358.107 672.417 354.938 676.909 354.286 678.918 350.215" style="fill:#fff"/><polygon points="654.418 353.365 656.427 357.436 660.92 358.089 657.669 360.257 658.436 365.731 654.418 363.619 650.4 365.731 651.168 361.257 647.917 358.089 652.409 357.436 654.418 353.365" style="fill:#fff"/><polygon points="629.918 357.548 631.927 361.619 636.42 362.272 633.169 365.44 633.936 369.915 629.918 367.802 625.9 369.915 626.668 365.44 623.417 362.272 627.909 361.619 629.918 357.548" style="fill:#fff"/><g id="_Group_6" data-name="&lt;Group&gt;"><g id="_Group_7" data-name="&lt;Group&gt;"><path d="M1337.37147,310.43322l-27.35156,8.30987,7.57022-10.99984" transform="translate(190.07407 75.70238)" style="fill:#aaa794"/><path d="M1172.76713,310.58549l27.35156,8.30986-7.57021-10.99984Z" transform="translate(190.07407 75.70238)" style="fill:#aaa794"/><path id="_Path_5" data-name="&lt;Path&gt;" d="M1351.376,173.41757,1255.06931,130.75l-96.30668,42.66757s-4.87636,146.28862,96.30668,193.83243C1356.25223,319.70619,1351.376,173.41757,1351.376,173.41757Z" transform="translate(190.07407 75.70238)" style="fill:#e6e2c6"/><path id="_Path_6" data-name="&lt;Path&gt;" d="M1255.06919,360.9078c-38.9905-19.27658-66.06655-56.13379-80.50253-109.59924a304.17927,304.17927,0,0,1-10.12243-74.16l90.625-40.15028,90.62543,40.15028a304.13154,304.13154,0,0,1-10.12242,74.16C1321.13564,304.774,1294.06017,341.63122,1255.06919,360.9078Z" transform="translate(190.07407 75.70238)" style="fill:#c6e5d9"/><path id="_Path_7" data-name="&lt;Path&gt;" d="M1322.82479,287.47537q-2.95915,6.52332-6.26207,12.58027c-15.14719,27.778-35.6976,48.171-61.443,60.89912-29.55124-14.60989-52.25851-39.31853-67.80591-73.7026" transform="translate(190.07407 75.70238)" style="fill:#e94e77"/><text transform="translate(1445.5105 424.06274)" style="font-size:10px;fill:#c6e5d9;font-family:SegoeUI-Semibold, Segoe UI;font-weight:700">x1</text><polygon points="1440.136 409.178 1442.294 413.551 1447.12 414.253 1443.628 417.657 1444.452 422.463 1440.136 420.194 1435.819 422.463 1436.643 417.657 1433.151 414.253 1437.977 413.551 1440.136 409.178" style="fill:#c6e5d9"/><path d="M1337.37158,310.58545a1048.9906,1048.9906,0,0,0-164.60449,0q-1.151-14.62138-2.30151-29.2428a1078.31461,1078.31461,0,0,1,169.20752,0Q1338.52209,295.964,1337.37158,310.58545Z" transform="translate(190.07407 75.70238)" style="fill:#e6e2c6"/><path d="M1287.82456,238.378l-17.47075-17.4735a26.05383,26.05383,0,1,0-8.6955,8.46451l17.589,17.589Zm-55.8085-31.383a16.33363,16.33363,0,1,1,16.33225,16.33225A16.35291,16.35291,0,0,1,1232.01606,206.995Z" transform="translate(190.07407 75.70238)" style="fill:#e94e77"/><circle cx="1428.89336" cy="393.32706" r="1.91666" style="fill:#c6e5d9"/><circle cx="1461.2267" cy="393.32706" r="1.91666" style="fill:#c6e5d9"/><g id="_Group_8" data-name="&lt;Group&gt;"><text transform="translate(1433.55852 398.30571)" style="font-size:14px;fill:#c6e5d9;font-family:LeagueGothic-Regular, League Gothic;letter-spacing:0.050013950892857144em">LGTM</text></g></g><g id="_Group_9" data-name="&lt;Group&gt;" style="mix-blend-mode:multiply"><path id="_Path_8" data-name="&lt;Path&gt;" d="M1351.376,173.41757,1255.06931,130.75v236.5c39.58433-18.59988,62.93635-52.31261,76.69835-86.46672C1353.18322,227.63485,1351.376,173.41757,1351.376,173.41757Z" transform="translate(190.07407 75.70238)" style="fill:#e6e2c6"/><polyline points="1529.685 356.955 1527.446 386.288 1507.763 384.944 1521.842 356.486" style="fill:#e6e2c6"/></g></g><g id="_Group_10" data-name="&lt;Group&gt;"><path d="M1211.41626,296.106q.08532,1.26617.17053,2.53235a5.04139,5.04139,0,0,1-.31787,2.03686,3.48686,3.48686,0,0,1-.98889,1.4288,3.258,3.258,0,0,1-2.03992.77515,3.337,3.337,0,0,1-2.15637-.46863,3.42432,3.42432,0,0,1-1.16064-1.27191,5.02366,5.02366,0,0,1-.6106-1.96905q-.427-5.42418-.85388-10.84833a4.89265,4.89265,0,0,1,.30762-2.0155,3.45869,3.45869,0,0,1,.97656-1.46131,3.623,3.623,0,0,1,2.1228-.78921,3.33832,3.33832,0,0,1,3.39307,1.77639,4.89919,4.89919,0,0,1,.597,1.9495q.08515,1.26621.17054,2.53235-1.29237.08706-2.58423.17916-.09027-1.26585-.18055-2.53164a1.557,1.557,0,0,0-.49426-1.12378.93825.93825,0,0,0-.65845-.154.91069.91069,0,0,0-.79882.73935,2.65822,2.65822,0,0,0-.0774.68634q.40412,5.42586.80787,10.8518a1.72913,1.72913,0,0,0,.51379,1.12134.7272.7272,0,0,0,.54358.16184.88228.88228,0,0,0,.88513-.74439,1.772,1.772,0,0,0,.05273-.6842q-.09045-1.26591-.18054-2.53168Q1210.13574,296.19229,1211.41626,296.106Z" transform="translate(190.07407 75.70238)" style="fill:#e94e77"/><path d="M1221.59631,298.04224a5.026,5.026,0,0,1-.34948,2.03167,3.48659,3.48659,0,0,1-1.01075,1.41324,3.25763,3.25763,0,0,1-2.05114.74335,3.33346,3.33346,0,0,1-2.1482-.50208,3.42653,3.42653,0,0,1-1.14062-1.28979,5.03372,5.03372,0,0,1-.57971-1.9783q-.34278-5.43009-.68518-10.86026a4.89691,4.89691,0,0,1,.33874-2.0105,3.45834,3.45834,0,0,1,.9989-1.44595,3.62092,3.62092,0,0,1,2.134-.75611,3.33749,3.33749,0,0,1,3.36425,1.82892,4.90278,4.90278,0,0,1,.56665,1.95853Zm-3.33935-10.71762a1.644,1.644,0,0,0-.42493-1.13419.81608.81608,0,0,0-.57788-.16858.85486.85486,0,0,0-.78479.72543,1.89362,1.89362,0,0,0-.06213.68354q.31969,5.4315.63928,10.863a1.59455,1.59455,0,0,0,.44629,1.13211.72028.72028,0,0,0,.54089.1702.79669.79669,0,0,0,.76856-.72345,1.735,1.735,0,0,0,.06323-.68329Q1218.56134,292.757,1218.257,287.32462Z" transform="translate(190.07407 75.70238)" style="fill:#e94e77"/><path d="M1224.88489,301.67947q-.43305-9.22563-.86609-18.45135,1.09936-.05158,2.199-.09949c2.58667-.112,4.00464.34134,4.80274,1.71951.774,1.38028.95617,3.6879,1.08374,7.30384.1261,3.61706.10534,5.90588-.55066,7.33783-.6803,1.43347-2.01795,1.98431-4.53137,2.09292Q1225.95343,301.62938,1224.88489,301.67947Zm2.6-2.83306c.93506-.03959,1.45972-.16135,1.7013-1.07706a8.022,8.022,0,0,0,.1759-1.96851c-.00977-.88019-.05688-2.06012-.11621-3.56656-.05994-1.5065-.10559-2.68747-.16614-3.56552a8.28216,8.28216,0,0,0-.33533-1.94818c-.31811-.8678-.864-.94586-1.81579-.90527Q1227.20654,292.33089,1227.48486,298.84641Z" transform="translate(190.07407 75.70238)" style="fill:#e94e77"/><path d="M1234.93713,282.80618q3.19593-.09694,6.392-.16308.02876,1.39476.05774,2.78943-1.79113.037-3.58179.0838.06318,2.42394.12671,4.848,1.27827-.03337,2.55738-.0618.03278,1.48256.06579,2.96509-1.27276.02829-2.54565.06152.06629,2.53725.13269,5.07443,1.75524-.04581,3.51123-.08218.02894,1.39472.05774,2.78943-3.10675.06432-6.21326.15857Q1235.21735,292.03781,1234.93713,282.80618Z" transform="translate(190.07407 75.70238)" style="fill:#e94e77"/><path d="M1254.46729,300.97382q-.7079-3.895-1.43213-7.7883-.36915.00109-.73828.00265l.03222,7.79093q-1.35882.00562-2.71777.017-.07708-9.23552-.15442-18.471,1.398-.01177,2.7959-.01749c3.34106-.01187,4.75879,1.834,4.74585,5.32556-.00647,1.83508-.49793,3.49127-1.54346,4.19434q.87634,4.47377,1.72888,8.94986Q1255.82562,300.97268,1254.46729,300.97382Zm-2.18079-10.29834a1.94772,1.94772,0,0,0,1.30249-.40644,2.92716,2.92716,0,0,0,.739-2.33807,2.97041,2.97041,0,0,0-.74914-2.36112,1.93066,1.93066,0,0,0-1.31494-.37283Q1252.27508,287.93628,1252.2865,290.67548Z" transform="translate(190.07407 75.70238)" style="fill:#e94e77"/><path d="M1260.09558,282.52176q3.19684.02472,6.39319.08041-.02436,1.39481-.04858,2.78961-1.791-.03112-3.58216-.05264-.02892,2.42465-.058,4.84925,1.27881.01533,2.55762.03564-.02345,1.48273-.04712,2.96545-1.27314-.02023-2.546-.03549-.03076,2.53789-.06079,5.07581,1.756.021,3.51184.05163-.02454,1.39471-.04859,2.78961-3.10712-.05406-6.21435-.07821Q1260.02423,291.75732,1260.09558,282.52176Z" transform="translate(190.07407 75.70238)" style="fill:#e94e77"/><path d="M1274.40747,282.78766q1.3579.03992,2.71643.08551-1.75854,9.1821-3.43567,18.373-1.35791-.03965-2.71606-.07343-1.17848-9.26806-2.438-18.53177,1.35828.02789,2.71692.06134.57348,5.09235,1.12512,10.18558.04065.39089.08106.78174l.15332.00415q.06116-.38814.123-.77622Q1273.55981,287.84159,1274.40747,282.78766Z" transform="translate(190.07407 75.70238)" style="fill:#e94e77"/><path d="M1279.68726,282.96414q1.39746.05232,2.79431.11051-.38452,9.22786-.76892,18.45565-1.35792-.05653-2.71619-.10742Q1279.34179,292.1935,1279.68726,282.96414Z" transform="translate(190.07407 75.70238)" style="fill:#e94e77"/><path d="M1285.84338,283.22333q3.19428.14942,6.38721.32977-.07873,1.39284-.15735,2.78558-1.78893-.10116-3.57849-.19232-.1236,2.42166-.24707,4.84329,1.27753.06519,2.55518.13538-.08148,1.48073-.16272,2.96137-1.27149-.06992-2.54358-.13477-.12946,2.53477-.25855,5.06955,1.75416.08949,3.5083.18857-.07836,1.39284-.15735,2.78558-3.10344-.17532-6.20861-.32053Q1285.41173,292.44913,1285.84338,283.22333Z" transform="translate(190.07407 75.70238)" style="fill:#e94e77"/><path d="M1297.84692,302.40616q-1.05468-.07064-2.10937-.13767-.65734-9.29631-1.38648-18.59222,1.29237.07713,2.58411.15939.25122,4.826.48572,9.65186.00567.30222.01111.60455l.20361.01334.11572-.59619q.90124-4.75142,1.8197-9.50052,1.00746.06821,2.0149.13943.25562,4.83033.49389,9.66062.01613.30316.03247.60644l.2035.01483q.048-.29859.09533-.5972.89685-4.74759,1.80957-9.493,1.29182.0966,2.58326.19818-2.00337,9.10675-3.93482,18.224-1.05432-.07887-2.10937-.15426-.31567-4.4068-.64844-8.81354-.03882-.5441-.07862-1.0881l-.102-.007q-.1137.53347-.2268,1.067Q1298.76672,298.08493,1297.84692,302.40616Z" transform="translate(190.07407 75.70238)" style="fill:#e94e77"/></g><path d="M1723.74625,194.15172V303.84828a5,5,0,0,0,2.5,4.33012l95,54.84828a5,5,0,0,0,5,0l95-54.84828a5,5,0,0,0,2.5-4.33012V194.15172a5,5,0,0,0-2.5-4.33012l-95-54.84828a5,5,0,0,0-5,0l-95,54.84828A5,5,0,0,0,1723.74625,194.15172Z" transform="translate(190.07407 75.70238)" style="fill:#dd5ca5"/><path d="M1729.94915,197.61583V300.38417a5,5,0,0,0,2.5,4.33013l89,51.38417a5,5,0,0,0,5,0l89-51.38417a5,5,0,0,0,2.5-4.33013V197.61583a5,5,0,0,0-2.5-4.33013l-89-51.38417a5,5,0,0,0-5,0l-89,51.38417A5,5,0,0,0,1729.94915,197.61583Z" transform="translate(190.07407 75.70238)" style="fill:none;stroke:#c5f466;stroke-miterlimit:10;stroke-width:4px"/><text x="190.07407" y="75.70238"></text><text transform="translate(1938.57035 298.65863)" style="font-size:13px;fill:#fff;font-family:SegoeUI-Bold, Segoe UI;font-weight:700;letter-spacing:-0.0800030048076923em">FIRST TIME USING</text><rect x="2039.32032" y="289.03558" width="49.5" height="10" style="fill:#c5f466"/><text transform="translate(1991.69535 351.65863)" style="font-size:13px;fill:#fff;font-family:SegoeUI-Bold, Segoe UI;font-weight:700;letter-spacing:-0.0800030048076923em">A<tspan x="8.10059" y="0" style="letter-spacing:-0.0897686298076923em">R</tspan><tspan x="15.42041" y="0">CHITECTURE</tspan></text><rect x="1938.44532" y="342.03558" width="49.5" height="10" style="fill:#c5f466"/><text transform="translate(1938.82047 330.05511)" style="font-size:30px;fill:#fff;font-family:SegoeUI-Bold, Segoe UI;font-weight:700;letter-spacing:-0.07999674479166667em">SERVERLESS</text><rect x="2073.15365" y="369.41058" width="3.83333" height="3.83333" style="fill:none"/><circle cx="2075.07032" cy="371.32725" r="1.91667" style="fill:#fff"/><rect x="2063.57032" y="369.41058" width="3.83333" height="3.83333" style="fill:none"/><circle cx="2065.48699" cy="371.32725" r="1.91667" style="fill:#fff"/><rect x="2053.98699" y="369.41058" width="3.83333" height="3.83333" style="fill:none"/><circle cx="2055.90365" cy="371.32725" r="1.91667" style="fill:#fff"/><rect x="2044.40365" y="369.41058" width="3.83333" height="3.83333" style="fill:none"/><circle cx="2046.32032" cy="371.32725" r="1.91667" style="fill:#fff"/><rect x="2034.82032" y="369.41058" width="3.83333" height="3.83333" style="fill:none"/><circle cx="2036.73699" cy="371.32725" r="1.91667" style="fill:#fff"/><rect x="2025.23699" y="369.41058" width="3.83333" height="3.83333" style="fill:none"/><circle cx="2027.15365" cy="371.32725" r="1.91667" style="fill:#fff"/><rect x="2015.65365" y="369.41058" width="3.83333" height="3.83333" style="fill:none"/><circle cx="2017.57032" cy="371.32725" r="1.91667" style="fill:#fff"/><rect x="2006.07032" y="369.41058" width="3.83333" height="3.83333" style="fill:none"/><circle cx="2007.98699" cy="371.32725" r="1.91667" style="fill:#fff"/><rect x="1996.48699" y="369.41058" width="3.83333" height="3.83333" style="fill:none"/><circle cx="1998.40365" cy="371.32725" r="1.91667" style="fill:#fff"/><rect x="1986.90365" y="369.41058" width="3.83333" height="3.83333" style="fill:none"/><circle cx="1988.82032" cy="371.32725" r="1.91667" style="fill:#fff"/><rect x="1977.32032" y="369.41058" width="3.83333" height="3.83333" style="fill:none"/><circle cx="1979.23699" cy="371.32725" r="1.91667" style="fill:#fff"/><rect x="1967.73699" y="369.41058" width="3.83333" height="3.83333" style="fill:none"/><circle cx="1969.65365" cy="371.32725" r="1.91667" style="fill:#fff"/><rect x="1958.15365" y="369.41058" width="3.83333" height="3.83333" style="fill:none"/><circle cx="1960.07032" cy="371.32725" r="1.91667" style="fill:#fff"/><rect x="1948.57032" y="369.41058" width="3.83333" height="3.83333" style="fill:none"/><circle cx="1950.48699" cy="371.32725" r="1.91667" style="fill:#fff"/></g></g></svg>