<svg xmlns="http://www.w3.org/2000/svg" xmlns:xlink="http://www.w3.org/1999/xlink" viewBox="0 0 2113.82032 514.70238"><defs><clipPath id="clip-path" transform="translate(190.07407 75.70238)"><polyline points="1772.491 269.452 1592.491 295.876 1592.491 225.349 1772.491 198.925" style="fill:none"/></clipPath><clipPath id="clip-path-2" transform="translate(190.07407 75.70238)"><path id="_Clipping_Path_" data-name="&lt;Clipping Path&gt;" d="M642.96278,360.9078c-38.99051-19.27658-66.06656-56.13379-80.50254-109.59924a304.18031,304.18031,0,0,1-10.12243-74.16l90.625-40.15028,90.62543,40.15028a304.13154,304.13154,0,0,1-10.12242,74.16C709.02922,304.774,681.95375,341.63122,642.96278,360.9078Z" style="fill:none"/></clipPath></defs><title>templates</title><g style="isolation:isolate"><g id="Layer_1" data-name="Layer 1"><path d="M1323.52282,194.15172V303.84828a5,5,0,0,0,2.5,4.33012l95,54.84828a5,5,0,0,0,5,0l95-54.84828a5,5,0,0,0,2.5-4.33012V194.15172a5,5,0,0,0-2.5-4.33012l-95-54.84828a5,5,0,0,0-5,0l-95,54.84828A5,5,0,0,0,1323.52282,194.15172Z" transform="translate(190.07407 75.70238)" style="fill:#f04e1f"/><path d="M1329.52283,197.61583V300.38417a5,5,0,0,0,2.5,4.33013l89,51.38417a5,5,0,0,0,5,0l89-51.38417a5,5,0,0,0,2.5-4.33013V197.61583a5,5,0,0,0-2.5-4.33013l-89-51.38417a5,5,0,0,0-5,0l-89,51.38417A5,5,0,0,0,1329.52283,197.61583Z" transform="translate(190.07407 75.70238)" style="fill:none;stroke:#ffc84d;stroke-miterlimit:10;stroke-width:4px"/><rect x="1333.84327" y="200.22134" width="3.6" height="1.3" transform="translate(683.93603 1332.83905) rotate(-60)" style="fill:none"/><rect x="1333.94327" y="200.32134" width="3.4" height="1.1" transform="translate(2367.49866 -779.69162) rotate(120)" style="fill:#ffc84d;stroke:#ffc84d;stroke-miterlimit:10;stroke-width:0.200000002980232px"/><rect x="1338.33669" y="194.87937" width="3.6" height="1.3" transform="translate(271.85366 771.96669) rotate(-30)" style="fill:none"/><rect x="1338.43669" y="194.97937" width="3.4" height="1.1" transform="translate(2788.56786 -229.50319) rotate(150)" style="fill:#ffc84d;stroke:#ffc84d;stroke-miterlimit:10;stroke-width:0.200000002980232px"/><rect x="1344.57207" y="191.27937" width="3.6" height="1.3" transform="translate(274.48904 774.60208) rotate(-30)" style="fill:none"/><rect x="1344.67207" y="191.37937" width="3.4" height="1.1" transform="translate(2798.40324 -239.33857) rotate(150)" style="fill:#ffc84d;stroke:#ffc84d;stroke-miterlimit:10;stroke-width:0.200000002980232px"/><rect x="1350.80745" y="187.67937" width="3.6" height="1.3" transform="translate(277.12442 777.23746) rotate(-30)" style="fill:none"/><rect x="1350.90745" y="187.77937" width="3.4" height="1.1" transform="translate(2808.23863 -249.17396) rotate(150)" style="fill:#ffc84d;stroke:#ffc84d;stroke-miterlimit:10;stroke-width:0.200000002980232px"/><rect x="1357.04284" y="184.07937" width="3.6" height="1.3" transform="translate(279.75981 779.87284) rotate(-30)" style="fill:none"/><rect x="1357.14284" y="184.17937" width="3.4" height="1.1" transform="translate(2818.07401 -259.00934) rotate(150)" style="fill:#ffc84d;stroke:#ffc84d;stroke-miterlimit:10;stroke-width:0.200000002980232px"/><rect x="1363.27822" y="180.47937" width="3.6" height="1.3" transform="translate(282.39519 782.50822) rotate(-30)" style="fill:none"/><rect x="1363.37822" y="180.57937" width="3.4" height="1.1" transform="translate(2827.90939 -268.84472) rotate(150)" style="fill:#ffc84d;stroke:#ffc84d;stroke-miterlimit:10;stroke-width:0.200000002980232px"/><rect x="1369.5136" y="176.87937" width="3.6" height="1.3" transform="translate(285.03057 785.14361) rotate(-30)" style="fill:none"/><rect x="1369.6136" y="176.97937" width="3.4" height="1.1" transform="translate(2837.74478 -278.68011) rotate(150)" style="fill:#ffc84d;stroke:#ffc84d;stroke-miterlimit:10;stroke-width:0.200000002980232px"/><rect x="1375.74899" y="173.27937" width="3.6" height="1.3" transform="translate(287.66596 787.77899) rotate(-30)" style="fill:none"/><rect x="1375.84899" y="173.37937" width="3.4" height="1.1" transform="translate(2847.58016 -288.51549) rotate(150)" style="fill:#ffc84d;stroke:#ffc84d;stroke-miterlimit:10;stroke-width:0.200000002980232px"/><rect x="1381.98437" y="169.67937" width="3.6" height="1.3" transform="translate(290.30134 790.41437) rotate(-30)" style="fill:none"/><rect x="1382.08437" y="169.77937" width="3.4" height="1.1" transform="translate(2857.41554 -298.35087) rotate(150)" style="fill:#ffc84d;stroke:#ffc84d;stroke-miterlimit:10;stroke-width:0.200000002980232px"/><rect x="1388.21975" y="166.07937" width="3.6" height="1.3" transform="translate(292.93672 793.04976) rotate(-30)" style="fill:none"/><rect x="1388.31975" y="166.17937" width="3.4" height="1.1" transform="translate(2867.25093 -308.18625) rotate(150)" style="fill:#ffc84d;stroke:#ffc84d;stroke-miterlimit:10;stroke-width:0.200000002980232px"/><rect x="1394.45513" y="162.47937" width="3.6" height="1.3" transform="translate(295.57211 795.68514) rotate(-30)" style="fill:none"/><rect x="1394.55513" y="162.57937" width="3.4" height="1.1" transform="translate(2877.08631 -318.02164) rotate(150)" style="fill:#ffc84d;stroke:#ffc84d;stroke-miterlimit:10;stroke-width:0.200000002980232px"/><rect x="1400.69052" y="158.87937" width="3.6" height="1.3" transform="translate(298.20749 798.32052) rotate(-30)" style="fill:none"/><rect x="1400.79052" y="158.97937" width="3.4" height="1.1" transform="translate(2886.92169 -327.85702) rotate(150)" style="fill:#ffc84d;stroke:#ffc84d;stroke-miterlimit:10;stroke-width:0.200000002980232px"/><rect x="1406.9259" y="155.27937" width="3.6" height="1.3" transform="translate(300.84287 800.9559) rotate(-30)" style="fill:none"/><rect x="1407.0259" y="155.37937" width="3.4" height="1.1" transform="translate(2896.75708 -337.6924) rotate(150)" style="fill:#ffc84d;stroke:#ffc84d;stroke-miterlimit:10;stroke-width:0.200000002980232px"/><rect x="1413.16128" y="151.67937" width="3.6" height="1.3" transform="translate(303.47825 803.59129) rotate(-30)" style="fill:none"/><rect x="1413.26128" y="151.77937" width="3.4" height="1.1" transform="translate(2906.59246 -347.52779) rotate(150)" style="fill:#ffc84d;stroke:#ffc84d;stroke-miterlimit:10;stroke-width:0.200000002980232px"/><rect x="1419.42356" y="148.17973" width="3.6" height="1.3" transform="translate(199.98112 448.61335) rotate(-15)" style="fill:none"/><rect x="1419.52356" y="148.27973" width="3.4" height="1.1" transform="translate(3022.61414 0.45086) rotate(165)" style="fill:#ffc84d;stroke:#ffc84d;stroke-miterlimit:10;stroke-width:0.200000002980232px"/><rect x="1427.45192" y="148.23009" width="1.3" height="3.6" transform="translate(774.19517 1387.48997) rotate(-60)" style="fill:none"/><rect x="1426.40192" y="149.48009" width="3.4" height="1.1" transform="translate(2779.9335 1069.71329) rotate(-150)" style="fill:#ffc84d;stroke:#ffc84d;stroke-miterlimit:10;stroke-width:0.200000002980232px"/><rect x="1433.68731" y="151.83009" width="1.3" height="3.6" transform="translate(774.19517 1394.68997) rotate(-60)" style="fill:none"/><rect x="1432.63731" y="153.08009" width="3.4" height="1.1" transform="translate(2789.76888 1079.54868) rotate(-150)" style="fill:#ffc84d;stroke:#ffc84d;stroke-miterlimit:10;stroke-width:0.200000002980232px"/><rect x="1439.92269" y="155.43009" width="1.3" height="3.6" transform="translate(774.19517 1401.88997) rotate(-60)" style="fill:none"/><rect x="1438.87269" y="156.68009" width="3.4" height="1.1" transform="translate(2799.60426 1089.38406) rotate(-150)" style="fill:#ffc84d;stroke:#ffc84d;stroke-miterlimit:10;stroke-width:0.200000002980232px"/><rect x="1446.15807" y="159.03009" width="1.3" height="3.6" transform="translate(774.19517 1409.08997) rotate(-60)" style="fill:none"/><rect x="1445.10807" y="160.28009" width="3.4" height="1.1" transform="translate(2809.43965 1099.21944) rotate(-150)" style="fill:#ffc84d;stroke:#ffc84d;stroke-miterlimit:10;stroke-width:0.200000002980232px"/><rect x="1452.39345" y="162.63009" width="1.3" height="3.6" transform="translate(774.19517 1416.28997) rotate(-60)" style="fill:none"/><rect x="1451.34345" y="163.88009" width="3.4" height="1.1" transform="translate(2819.27503 1109.05483) rotate(-150)" style="fill:#ffc84d;stroke:#ffc84d;stroke-miterlimit:10;stroke-width:0.200000002980232px"/><rect x="1458.62884" y="166.23009" width="1.3" height="3.6" transform="translate(774.19517 1423.48997) rotate(-60)" style="fill:none"/><rect x="1457.57884" y="167.48009" width="3.4" height="1.1" transform="translate(2829.11041 1118.89021) rotate(-150)" style="fill:#ffc84d;stroke:#ffc84d;stroke-miterlimit:10;stroke-width:0.200000002980232px"/><rect x="1464.86422" y="169.83009" width="1.3" height="3.6" transform="translate(774.19517 1430.68997) rotate(-60)" style="fill:none"/><rect x="1463.81422" y="171.08009" width="3.4" height="1.1" transform="translate(2838.94579 1128.72559) rotate(-150)" style="fill:#ffc84d;stroke:#ffc84d;stroke-miterlimit:10;stroke-width:0.200000002980232px"/><rect x="1471.0996" y="173.43009" width="1.3" height="3.6" transform="translate(774.19517 1437.88997) rotate(-60)" style="fill:none"/><rect x="1470.0496" y="174.68009" width="3.4" height="1.1" transform="translate(2848.78118 1138.56098) rotate(-150)" style="fill:#ffc84d;stroke:#ffc84d;stroke-miterlimit:10;stroke-width:0.200000002980232px"/><rect x="1477.33499" y="177.03009" width="1.3" height="3.6" transform="translate(774.19517 1445.08997) rotate(-60)" style="fill:none"/><rect x="1476.28499" y="178.28009" width="3.4" height="1.1" transform="translate(2858.61656 1148.39636) rotate(-150)" style="fill:#ffc84d;stroke:#ffc84d;stroke-miterlimit:10;stroke-width:0.200000002980232px"/><rect x="1483.57037" y="180.63009" width="1.3" height="3.6" transform="translate(774.19517 1452.28997) rotate(-60)" style="fill:none"/><rect x="1482.52037" y="181.88009" width="3.4" height="1.1" transform="translate(2868.45194 1158.23174) rotate(-150)" style="fill:#ffc84d;stroke:#ffc84d;stroke-miterlimit:10;stroke-width:0.200000002980232px"/><rect x="1489.80575" y="184.23009" width="1.3" height="3.6" transform="translate(774.19517 1459.48997) rotate(-60)" style="fill:none"/><rect x="1488.75575" y="185.48009" width="3.4" height="1.1" transform="translate(2878.28733 1168.06712) rotate(-150)" style="fill:#ffc84d;stroke:#ffc84d;stroke-miterlimit:10;stroke-width:0.200000002980232px"/><rect x="1496.04114" y="187.83009" width="1.3" height="3.6" transform="translate(774.19517 1466.68997) rotate(-60)" style="fill:none"/><rect x="1494.99114" y="189.08009" width="3.4" height="1.1" transform="translate(2888.12271 1177.90251) rotate(-150)" style="fill:#ffc84d;stroke:#ffc84d;stroke-miterlimit:10;stroke-width:0.200000002980232px"/><rect x="1502.27652" y="191.43009" width="1.3" height="3.6" transform="translate(774.19517 1473.88997) rotate(-60)" style="fill:none"/><rect x="1501.22652" y="192.68009" width="3.4" height="1.1" transform="translate(2897.95809 1187.73789) rotate(-150)" style="fill:#ffc84d;stroke:#ffc84d;stroke-miterlimit:10;stroke-width:0.200000002980232px"/><rect x="1508.45313" y="195.08886" width="1.3" height="3.6" transform="translate(492.8587 1200.46685) rotate(-45)" style="fill:none"/><rect x="1507.40313" y="196.33886" width="3.4" height="1.1" transform="translate(2627.05281 1478.90974) rotate(-135)" style="fill:#ffc84d;stroke:#ffc84d;stroke-miterlimit:10;stroke-width:0.200000002980232px"/><rect x="1700.94691" y="277.34288" width="1.3" height="3.6" style="fill:none"/><rect x="1509.82284" y="202.8905" width="3.4" height="1.1" transform="translate(1498.15641 1790.66572) rotate(-90)" style="fill:#ffc84d;stroke:#ffc84d;stroke-miterlimit:10;stroke-width:0.200000002980232px"/><rect x="1700.94691" y="284.54288" width="1.3" height="3.6" style="fill:none"/><rect x="1509.82284" y="210.0905" width="3.4" height="1.1" transform="translate(1490.95641 1797.86572) rotate(-90)" style="fill:#ffc84d;stroke:#ffc84d;stroke-miterlimit:10;stroke-width:0.200000002980232px"/><rect x="1700.94691" y="291.74288" width="1.3" height="3.6" style="fill:none"/><rect x="1509.82284" y="217.2905" width="3.4" height="1.1" transform="translate(1483.75641 1805.06572) rotate(-90)" style="fill:#ffc84d;stroke:#ffc84d;stroke-miterlimit:10;stroke-width:0.200000002980232px"/><rect x="1700.94691" y="298.94288" width="1.3" height="3.6" style="fill:none"/><rect x="1509.82284" y="224.4905" width="3.4" height="1.1" transform="translate(1476.55641 1812.26572) rotate(-90)" style="fill:#ffc84d;stroke:#ffc84d;stroke-miterlimit:10;stroke-width:0.200000002980232px"/><rect x="1700.94691" y="306.14288" width="1.3" height="3.6" style="fill:none"/><rect x="1509.82284" y="231.6905" width="3.4" height="1.1" transform="translate(1469.35641 1819.46572) rotate(-90)" style="fill:#ffc84d;stroke:#ffc84d;stroke-miterlimit:10;stroke-width:0.200000002980232px"/><rect x="1700.94691" y="313.34288" width="1.3" height="3.6" style="fill:none"/><rect x="1509.82284" y="238.8905" width="3.4" height="1.1" transform="translate(1462.15641 1826.66572) rotate(-90)" style="fill:#ffc84d;stroke:#ffc84d;stroke-miterlimit:10;stroke-width:0.200000002980232px"/><rect x="1700.94691" y="320.54288" width="1.3" height="3.6" style="fill:none"/><rect x="1509.82284" y="246.0905" width="3.4" height="1.1" transform="translate(1454.95641 1833.86572) rotate(-90)" style="fill:#ffc84d;stroke:#ffc84d;stroke-miterlimit:10;stroke-width:0.200000002980232px"/><rect x="1700.94691" y="327.74288" width="1.3" height="3.6" style="fill:none"/><rect x="1509.82284" y="253.2905" width="3.4" height="1.1" transform="translate(1447.75641 1841.06572) rotate(-90)" style="fill:#ffc84d;stroke:#ffc84d;stroke-miterlimit:10;stroke-width:0.200000002980232px"/><rect x="1700.94691" y="334.94288" width="1.3" height="3.6" style="fill:none"/><rect x="1509.82284" y="260.4905" width="3.4" height="1.1" transform="translate(1440.55641 1848.26572) rotate(-90)" style="fill:#ffc84d;stroke:#ffc84d;stroke-miterlimit:10;stroke-width:0.200000002980232px"/><rect x="1700.94691" y="342.14288" width="1.3" height="3.6" style="fill:none"/><rect x="1509.82284" y="267.6905" width="3.4" height="1.1" transform="translate(1433.35641 1855.46572) rotate(-90)" style="fill:#ffc84d;stroke:#ffc84d;stroke-miterlimit:10;stroke-width:0.200000002980232px"/><rect x="1700.94691" y="349.34288" width="1.3" height="3.6" style="fill:none"/><rect x="1509.82284" y="274.8905" width="3.4" height="1.1" transform="translate(1426.15641 1862.66572) rotate(-90)" style="fill:#ffc84d;stroke:#ffc84d;stroke-miterlimit:10;stroke-width:0.200000002980232px"/><rect x="1700.94691" y="356.54288" width="1.3" height="3.6" style="fill:none"/><rect x="1509.82284" y="282.0905" width="3.4" height="1.1" transform="translate(1418.95641 1869.86572) rotate(-90)" style="fill:#ffc84d;stroke:#ffc84d;stroke-miterlimit:10;stroke-width:0.200000002980232px"/><rect x="1700.94691" y="363.74288" width="1.3" height="3.6" style="fill:none"/><rect x="1509.82284" y="289.2905" width="3.4" height="1.1" transform="translate(1411.75641 1877.06572) rotate(-90)" style="fill:#ffc84d;stroke:#ffc84d;stroke-miterlimit:10;stroke-width:0.200000002980232px"/><rect x="1509.66263" y="296.37437" width="3.6" height="1.3" transform="translate(1023.43788 1755.81197) rotate(-75)" style="fill:none"/><rect x="1509.76263" y="296.47437" width="3.4" height="1.1" transform="translate(1023.43788 1755.81197) rotate(-75)" style="fill:#ffc84d;stroke:#ffc84d;stroke-miterlimit:10;stroke-width:0.200000002980232px"/><rect x="1505.21329" y="301.76041" width="3.6" height="1.3" transform="translate(240.77036 869.72434) rotate(-30)" style="fill:none"/><rect x="1505.31329" y="301.86041" width="3.4" height="1.1" transform="matrix(0.86603, -0.5, 0.5, 0.86603, 240.77036, 869.72434)" style="fill:#ffc84d;stroke:#ffc84d;stroke-miterlimit:10;stroke-width:0.200000002980232px"/><rect x="1498.97791" y="305.36041" width="3.6" height="1.3" transform="translate(238.13498 867.08896) rotate(-30)" style="fill:none"/><rect x="1499.07791" y="305.46041" width="3.4" height="1.1" transform="matrix(0.86603, -0.5, 0.5, 0.86603, 238.13498, 867.08896)" style="fill:#ffc84d;stroke:#ffc84d;stroke-miterlimit:10;stroke-width:0.200000002980232px"/><rect x="1492.74252" y="308.96041" width="3.6" height="1.3" transform="translate(235.4996 864.45357) rotate(-30)" style="fill:none"/><rect x="1492.84252" y="309.06041" width="3.4" height="1.1" transform="translate(235.4996 864.45357) rotate(-30)" style="fill:#ffc84d;stroke:#ffc84d;stroke-miterlimit:10;stroke-width:0.200000002980232px"/><rect x="1486.50714" y="312.56041" width="3.6" height="1.3" transform="translate(232.86421 861.81819) rotate(-30)" style="fill:none"/><rect x="1486.60714" y="312.66041" width="3.4" height="1.1" transform="translate(232.86421 861.81819) rotate(-30)" style="fill:#ffc84d;stroke:#ffc84d;stroke-miterlimit:10;stroke-width:0.200000002980232px"/><rect x="1480.27176" y="316.16041" width="3.6" height="1.3" transform="translate(230.22883 859.18281) rotate(-30)" style="fill:none"/><rect x="1480.37176" y="316.26041" width="3.4" height="1.1" transform="translate(230.22883 859.18281) rotate(-30)" style="fill:#ffc84d;stroke:#ffc84d;stroke-miterlimit:10;stroke-width:0.200000002980232px"/><rect x="1474.03638" y="319.76041" width="3.6" height="1.3" transform="translate(227.59345 856.54742) rotate(-30)" style="fill:none"/><rect x="1474.13638" y="319.86041" width="3.4" height="1.1" transform="translate(227.59345 856.54742) rotate(-30)" style="fill:#ffc84d;stroke:#ffc84d;stroke-miterlimit:10;stroke-width:0.200000002980232px"/><rect x="1467.80099" y="323.36041" width="3.6" height="1.3" transform="translate(224.95806 853.91204) rotate(-30)" style="fill:none"/><rect x="1467.90099" y="323.46041" width="3.4" height="1.1" transform="translate(224.95806 853.91204) rotate(-30)" style="fill:#ffc84d;stroke:#ffc84d;stroke-miterlimit:10;stroke-width:0.200000002980232px"/><rect x="1461.56561" y="326.96041" width="3.6" height="1.3" transform="translate(222.32268 851.27666) rotate(-30)" style="fill:none"/><rect x="1461.66561" y="327.06041" width="3.4" height="1.1" transform="translate(222.32268 851.27666) rotate(-30)" style="fill:#ffc84d;stroke:#ffc84d;stroke-miterlimit:10;stroke-width:0.200000002980232px"/><rect x="1455.33023" y="330.56041" width="3.6" height="1.3" transform="translate(219.6873 848.64127) rotate(-30)" style="fill:none"/><rect x="1455.43023" y="330.66041" width="3.4" height="1.1" transform="translate(219.6873 848.64127) rotate(-30)" style="fill:#ffc84d;stroke:#ffc84d;stroke-miterlimit:10;stroke-width:0.200000002980232px"/><rect x="1449.09484" y="334.16041" width="3.6" height="1.3" transform="translate(217.05192 846.00589) rotate(-30)" style="fill:none"/><rect x="1449.19484" y="334.26041" width="3.4" height="1.1" transform="translate(217.05192 846.00589) rotate(-30)" style="fill:#ffc84d;stroke:#ffc84d;stroke-miterlimit:10;stroke-width:0.200000002980232px"/><rect x="1442.85946" y="337.76041" width="3.6" height="1.3" transform="translate(214.41653 843.37051) rotate(-30)" style="fill:none"/><rect x="1442.95946" y="337.86041" width="3.4" height="1.1" transform="translate(214.41653 843.37051) rotate(-30)" style="fill:#ffc84d;stroke:#ffc84d;stroke-miterlimit:10;stroke-width:0.200000002980232px"/><rect x="1436.62408" y="341.36041" width="3.6" height="1.3" transform="translate(211.78115 840.73513) rotate(-30)" style="fill:none"/><rect x="1436.72408" y="341.46041" width="3.4" height="1.1" transform="translate(211.78115 840.73513) rotate(-30)" style="fill:#ffc84d;stroke:#ffc84d;stroke-miterlimit:10;stroke-width:0.200000002980232px"/><rect x="1430.38869" y="344.96041" width="3.6" height="1.3" transform="translate(209.14577 838.09974) rotate(-30)" style="fill:none"/><rect x="1430.48869" y="345.06041" width="3.4" height="1.1" transform="translate(209.14577 838.09974) rotate(-30)" style="fill:#ffc84d;stroke:#ffc84d;stroke-miterlimit:10;stroke-width:0.200000002980232px"/><rect x="1424.14256" y="348.52027" width="3.6" height="1.3" transform="translate(148.28997 456.66116) rotate(-15)" style="fill:none"/><rect x="1424.24256" y="348.62027" width="3.4" height="1.1" transform="translate(148.28997 456.66116) rotate(-15)" style="fill:#ffc84d;stroke:#ffc84d;stroke-miterlimit:10;stroke-width:0.200000002980232px"/><rect x="1418.39806" y="346.23013" width="1.3" height="3.6" transform="matrix(0.5, -0.86603, 0.86603, 0.5, 598.19517, 1478.64911)" style="fill:none"/><rect x="1417.34806" y="347.48013" width="3.4" height="1.1" transform="translate(554.20553 -587.19445) rotate(30)" style="fill:#ffc84d;stroke:#ffc84d;stroke-miterlimit:10;stroke-width:0.200000002980232px"/><rect x="1412.16267" y="342.63013" width="1.3" height="3.6" transform="translate(598.19517 1471.44911) rotate(-60)" style="fill:none"/><rect x="1411.11267" y="343.88013" width="3.4" height="1.1" transform="translate(551.57014 -584.55907) rotate(30)" style="fill:#ffc84d;stroke:#ffc84d;stroke-miterlimit:10;stroke-width:0.200000002980232px"/><rect x="1405.92729" y="339.03013" width="1.3" height="3.6" transform="translate(598.19517 1464.24911) rotate(-60)" style="fill:none"/><rect x="1404.87729" y="340.28013" width="3.4" height="1.1" transform="translate(548.93476 -581.92369) rotate(30)" style="fill:#ffc84d;stroke:#ffc84d;stroke-miterlimit:10;stroke-width:0.200000002980232px"/><rect x="1399.69191" y="335.43013" width="1.3" height="3.6" transform="translate(598.19517 1457.04911) rotate(-60)" style="fill:none"/><rect x="1398.64191" y="336.68013" width="3.4" height="1.1" transform="translate(546.29938 -579.2883) rotate(30)" style="fill:#ffc84d;stroke:#ffc84d;stroke-miterlimit:10;stroke-width:0.200000002980232px"/><rect x="1393.45652" y="331.83013" width="1.3" height="3.6" transform="translate(598.19517 1449.84911) rotate(-60)" style="fill:none"/><rect x="1392.40652" y="333.08013" width="3.4" height="1.1" transform="translate(543.664 -576.65292) rotate(30)" style="fill:#ffc84d;stroke:#ffc84d;stroke-miterlimit:10;stroke-width:0.200000002980232px"/><rect x="1387.22114" y="328.23013" width="1.3" height="3.6" transform="translate(598.19517 1442.64911) rotate(-60)" style="fill:none"/><rect x="1386.17114" y="329.48013" width="3.4" height="1.1" transform="translate(541.02861 -574.01754) rotate(30)" style="fill:#ffc84d;stroke:#ffc84d;stroke-miterlimit:10;stroke-width:0.200000002980232px"/><rect x="1380.98576" y="324.63013" width="1.3" height="3.6" transform="translate(598.19517 1435.44911) rotate(-60)" style="fill:none"/><rect x="1379.93576" y="325.88013" width="3.4" height="1.1" transform="translate(538.39323 -571.38215) rotate(30)" style="fill:#ffc84d;stroke:#ffc84d;stroke-miterlimit:10;stroke-width:0.200000002980232px"/><rect x="1374.75037" y="321.03013" width="1.3" height="3.6" transform="translate(598.19517 1428.24911) rotate(-60)" style="fill:none"/><rect x="1373.70037" y="322.28013" width="3.4" height="1.1" transform="translate(535.75785 -568.74677) rotate(30)" style="fill:#ffc84d;stroke:#ffc84d;stroke-miterlimit:10;stroke-width:0.200000002980232px"/><rect x="1368.51499" y="317.43013" width="1.3" height="3.6" transform="translate(598.19517 1421.04911) rotate(-60)" style="fill:none"/><rect x="1367.46499" y="318.68013" width="3.4" height="1.1" transform="translate(533.12246 -566.11139) rotate(30)" style="fill:#ffc84d;stroke:#ffc84d;stroke-miterlimit:10;stroke-width:0.200000002980232px"/><rect x="1362.27961" y="313.83013" width="1.3" height="3.6" transform="translate(598.19517 1413.84911) rotate(-60)" style="fill:none"/><rect x="1361.22961" y="315.08013" width="3.4" height="1.1" transform="translate(530.48708 -563.47601) rotate(30)" style="fill:#ffc84d;stroke:#ffc84d;stroke-miterlimit:10;stroke-width:0.200000002980232px"/><rect x="1356.04423" y="310.23013" width="1.3" height="3.6" transform="matrix(0.5, -0.86603, 0.86603, 0.5, 598.19517, 1406.64911)" style="fill:none"/><rect x="1354.99423" y="311.48013" width="3.4" height="1.1" transform="translate(527.8517 -560.84062) rotate(30)" style="fill:#ffc84d;stroke:#ffc84d;stroke-miterlimit:10;stroke-width:0.200000002980232px"/><rect x="1349.80884" y="306.63013" width="1.3" height="3.6" transform="matrix(0.5, -0.86603, 0.86603, 0.5, 598.19517, 1399.44911)" style="fill:none"/><rect x="1348.75884" y="307.88013" width="3.4" height="1.1" transform="translate(525.21631 -558.20524) rotate(30)" style="fill:#ffc84d;stroke:#ffc84d;stroke-miterlimit:10;stroke-width:0.200000002980232px"/><rect x="1343.57346" y="303.03013" width="1.3" height="3.6" transform="translate(598.19517 1392.24911) rotate(-60)" style="fill:none"/><rect x="1342.52346" y="304.28013" width="3.4" height="1.1" transform="translate(522.58093 -555.56986) rotate(30)" style="fill:#ffc84d;stroke:#ffc84d;stroke-miterlimit:10;stroke-width:0.200000002980232px"/><rect x="1337.35277" y="299.41543" width="1.3" height="3.6" transform="translate(368.97453 1110.03717) rotate(-45)" style="fill:none"/><rect x="1336.30277" y="300.66543" width="3.4" height="1.1" transform="translate(794.95749 -782.18449) rotate(45)" style="fill:#ffc84d;stroke:#ffc84d;stroke-miterlimit:10;stroke-width:0.200000002980232px"/><rect x="1524.94691" y="368.58231" width="1.3" height="3.6" style="fill:none"/><rect x="1333.82284" y="294.12993" width="3.4" height="1.1" transform="translate(1820.27684 -965.14053) rotate(90)" style="fill:#ffc84d;stroke:#ffc84d;stroke-miterlimit:10;stroke-width:0.200000002980232px"/><rect x="1524.94691" y="361.38231" width="1.3" height="3.6" style="fill:none"/><rect x="1333.82284" y="286.92993" width="3.4" height="1.1" transform="translate(1813.07684 -972.34053) rotate(90)" style="fill:#ffc84d;stroke:#ffc84d;stroke-miterlimit:10;stroke-width:0.200000002980232px"/><rect x="1524.94691" y="354.18231" width="1.3" height="3.6" style="fill:none"/><rect x="1333.82284" y="279.72993" width="3.4" height="1.1" transform="translate(1805.87684 -979.54053) rotate(90)" style="fill:#ffc84d;stroke:#ffc84d;stroke-miterlimit:10;stroke-width:0.200000002980232px"/><rect x="1524.94691" y="346.98231" width="1.3" height="3.6" style="fill:none"/><rect x="1333.82284" y="272.52993" width="3.4" height="1.1" transform="translate(1798.67684 -986.74053) rotate(90)" style="fill:#ffc84d;stroke:#ffc84d;stroke-miterlimit:10;stroke-width:0.200000002980232px"/><rect x="1524.94691" y="339.78231" width="1.3" height="3.6" style="fill:none"/><rect x="1333.82284" y="265.32993" width="3.4" height="1.1" transform="translate(1791.47684 -993.94053) rotate(90)" style="fill:#ffc84d;stroke:#ffc84d;stroke-miterlimit:10;stroke-width:0.200000002980232px"/><rect x="1524.94691" y="332.58231" width="1.3" height="3.6" style="fill:none"/><rect x="1333.82284" y="258.12993" width="3.4" height="1.1" transform="translate(1784.27684 -1001.14053) rotate(90)" style="fill:#ffc84d;stroke:#ffc84d;stroke-miterlimit:10;stroke-width:0.200000002980232px"/><rect x="1524.94691" y="325.38231" width="1.3" height="3.6" style="fill:none"/><rect x="1333.82284" y="250.92993" width="3.4" height="1.1" transform="translate(1777.07684 -1008.34053) rotate(90)" style="fill:#ffc84d;stroke:#ffc84d;stroke-miterlimit:10;stroke-width:0.200000002980232px"/><rect x="1524.94691" y="318.18231" width="1.3" height="3.6" style="fill:none"/><rect x="1333.82284" y="243.72993" width="3.4" height="1.1" transform="translate(1769.87684 -1015.54053) rotate(90)" style="fill:#ffc84d;stroke:#ffc84d;stroke-miterlimit:10;stroke-width:0.200000002980232px"/><rect x="1524.94691" y="310.98231" width="1.3" height="3.6" style="fill:none"/><rect x="1333.82284" y="236.52993" width="3.4" height="1.1" transform="translate(1762.67684 -1022.74053) rotate(90)" style="fill:#ffc84d;stroke:#ffc84d;stroke-miterlimit:10;stroke-width:0.200000002980232px"/><rect x="1524.94691" y="303.78231" width="1.3" height="3.6" style="fill:none"/><rect x="1333.82284" y="229.32993" width="3.4" height="1.1" transform="translate(1755.47684 -1029.94053) rotate(90)" style="fill:#ffc84d;stroke:#ffc84d;stroke-miterlimit:10;stroke-width:0.200000002980232px"/><rect x="1524.94691" y="296.58231" width="1.3" height="3.6" style="fill:none"/><rect x="1333.82284" y="222.12993" width="3.4" height="1.1" transform="translate(1748.27684 -1037.14053) rotate(90)" style="fill:#ffc84d;stroke:#ffc84d;stroke-miterlimit:10;stroke-width:0.200000002980232px"/><rect x="1524.94691" y="289.38231" width="1.3" height="3.6" style="fill:none"/><rect x="1333.82284" y="214.92993" width="3.4" height="1.1" transform="translate(1741.07684 -1044.34053) rotate(90)" style="fill:#ffc84d;stroke:#ffc84d;stroke-miterlimit:10;stroke-width:0.200000002980232px"/><rect x="1524.94691" y="282.18231" width="1.3" height="3.6" style="fill:none"/><rect x="1333.82284" y="207.72993" width="3.4" height="1.1" transform="translate(1733.87684 -1051.54053) rotate(90)" style="fill:#ffc84d;stroke:#ffc84d;stroke-miterlimit:10;stroke-width:0.200000002980232px"/><rect x="1524.94691" y="274.98231" width="1.3" height="3.6" style="fill:none"/><rect x="1333.82284" y="200.52993" width="3.4" height="1.1" transform="translate(1726.67684 -1058.74053) rotate(90)" style="fill:#ffc84d;stroke:#ffc84d;stroke-miterlimit:10;stroke-width:0.200000002980232px"/><polygon points="1679.294 315.702 1683.312 323.844 1692.297 325.149 1685.796 331.487 1687.33 340.435 1679.294 336.21 1671.258 340.435 1672.793 331.487 1666.291 325.149 1675.276 323.844 1679.294 315.702" style="fill:#fff"/><polygon points="1549.306 315.702 1553.324 323.844 1562.309 325.149 1555.807 331.487 1557.342 340.435 1549.306 336.21 1541.269 340.435 1542.804 331.487 1536.303 325.149 1545.288 323.844 1549.306 315.702" style="fill:#fff"/><text transform="translate(1571.15058 291.40942) scale(1 1.35)" style="font-size:20px;fill:#fff;font-family:SegoeUI-Bold, Segoe UI;font-weight:700"><tspan style="letter-spacing:-0.05908203125em">P</tspan><tspan x="11.10352" y="0">ASSION</tspan><tspan style="font-size:27px"><tspan x="-0.47266" y="23.99993">N</tspan><tspan x="20.8584" y="23.99993" style="letter-spacing:0.0048828125em">E</tspan><tspan x="35.36035" y="23.99993">VER</tspan></tspan><tspan style="font-size:40px"><tspan x="-0.49316" y="59.55584">DIES</tspan></tspan></text><path d="M1582.49092,194.15172V303.84828a5,5,0,0,0,2.5,4.33012l95,54.84828a5,5,0,0,0,5,0l95-54.84828a5,5,0,0,0,2.5-4.33012V194.15172a5,5,0,0,0-2.5-4.33012l-95-54.84828a5,5,0,0,0-5,0l-95,54.84828A5,5,0,0,0,1582.49092,194.15172Z" transform="translate(190.07407 75.70238)" style="fill:#ffc84d"/><rect x="1589.89248" y="192.23066" width="3.6" height="1.3" transform="translate(519.88278 1257.69236) rotate(-45)" style="fill:none"/><rect x="1589.99248" y="192.33066" width="3.4" height="1.1" transform="translate(3043.65032 -720.52628) rotate(135)" style="fill:#fff;stroke:#fff;stroke-miterlimit:10;stroke-width:0.200000002980232px"/><rect x="1596.12786" y="188.63066" width="3.6" height="1.3" transform="translate(309.51548 900.02511) rotate(-30)" style="fill:none"/><rect x="1596.22786" y="188.73066" width="3.4" height="1.1" transform="translate(3266.48838 -370.05903) rotate(150)" style="fill:#fff;stroke:#fff;stroke-miterlimit:10;stroke-width:0.200000002980232px"/><rect x="1602.36324" y="185.03066" width="3.6" height="1.3" transform="translate(312.15087 902.66049) rotate(-30)" style="fill:none"/><rect x="1602.46324" y="185.13066" width="3.4" height="1.1" transform="translate(3276.32377 -379.89441) rotate(150)" style="fill:#fff;stroke:#fff;stroke-miterlimit:10;stroke-width:0.200000002980232px"/><rect x="1608.59863" y="181.43066" width="3.6" height="1.3" transform="translate(314.78625 905.29588) rotate(-30)" style="fill:none"/><rect x="1608.69863" y="181.53066" width="3.4" height="1.1" transform="translate(3286.15915 -389.7298) rotate(150)" style="fill:#fff;stroke:#fff;stroke-miterlimit:10;stroke-width:0.200000002980232px"/><rect x="1614.83401" y="177.83066" width="3.6" height="1.3" transform="translate(317.42163 907.93126) rotate(-30)" style="fill:none"/><rect x="1614.93401" y="177.93066" width="3.4" height="1.1" transform="translate(3295.99453 -399.56518) rotate(150)" style="fill:#fff;stroke:#fff;stroke-miterlimit:10;stroke-width:0.200000002980232px"/><rect x="1621.06939" y="174.23066" width="3.6" height="1.3" transform="translate(320.05701 910.56664) rotate(-30)" style="fill:none"/><rect x="1621.16939" y="174.33066" width="3.4" height="1.1" transform="translate(3305.82992 -409.40056) rotate(150)" style="fill:#fff;stroke:#fff;stroke-miterlimit:10;stroke-width:0.200000002980232px"/><rect x="1627.30478" y="170.63066" width="3.6" height="1.3" transform="translate(322.6924 913.20202) rotate(-30)" style="fill:none"/><rect x="1627.40478" y="170.73066" width="3.4" height="1.1" transform="translate(3315.6653 -419.23595) rotate(150)" style="fill:#fff;stroke:#fff;stroke-miterlimit:10;stroke-width:0.200000002980232px"/><rect x="1633.54016" y="167.03066" width="3.6" height="1.3" transform="translate(325.32778 915.83741) rotate(-30)" style="fill:none"/><rect x="1633.64016" y="167.13066" width="3.4" height="1.1" transform="translate(3325.50068 -429.07133) rotate(150)" style="fill:#fff;stroke:#fff;stroke-miterlimit:10;stroke-width:0.200000002980232px"/><rect x="1639.77554" y="163.43066" width="3.6" height="1.3" transform="translate(327.96316 918.47279) rotate(-30)" style="fill:none"/><rect x="1639.87554" y="163.53066" width="3.4" height="1.1" transform="translate(3335.33606 -438.90671) rotate(150)" style="fill:#fff;stroke:#fff;stroke-miterlimit:10;stroke-width:0.200000002980232px"/><rect x="1646.01092" y="159.83066" width="3.6" height="1.3" transform="translate(330.59855 921.10817) rotate(-30)" style="fill:none"/><rect x="1646.11092" y="159.93066" width="3.4" height="1.1" transform="translate(3345.17145 -448.74209) rotate(150)" style="fill:#fff;stroke:#fff;stroke-miterlimit:10;stroke-width:0.200000002980232px"/><rect x="1652.24631" y="156.23066" width="3.6" height="1.3" transform="translate(333.23393 923.74356) rotate(-30)" style="fill:none"/><rect x="1652.34631" y="156.33066" width="3.4" height="1.1" transform="translate(3355.00683 -458.57748) rotate(150)" style="fill:#fff;stroke:#fff;stroke-miterlimit:10;stroke-width:0.200000002980232px"/><rect x="1658.48169" y="152.63066" width="3.6" height="1.3" transform="translate(335.86931 926.37894) rotate(-30)" style="fill:none"/><rect x="1658.58169" y="152.73066" width="3.4" height="1.1" transform="translate(3364.84221 -468.41286) rotate(150)" style="fill:#fff;stroke:#fff;stroke-miterlimit:10;stroke-width:0.200000002980232px"/><rect x="1664.71707" y="149.03066" width="3.6" height="1.3" transform="translate(338.50469 929.01432) rotate(-30)" style="fill:none"/><rect x="1664.81707" y="149.13066" width="3.4" height="1.1" transform="translate(3374.6776 -478.24824) rotate(150)" style="fill:#fff;stroke:#fff;stroke-miterlimit:10;stroke-width:0.200000002980232px"/><rect x="1670.95246" y="145.43066" width="3.6" height="1.3" transform="translate(341.14008 931.64971) rotate(-30)" style="fill:none"/><rect x="1671.05246" y="145.53066" width="3.4" height="1.1" transform="translate(3384.51298 -488.08363) rotate(150)" style="fill:#fff;stroke:#fff;stroke-miterlimit:10;stroke-width:0.200000002980232px"/><rect x="1677.18784" y="141.83066" width="3.6" height="1.3" transform="translate(343.77546 934.28509) rotate(-30)" style="fill:none"/><rect x="1677.28784" y="141.93066" width="3.4" height="1.1" transform="translate(3394.34836 -497.91901) rotate(150)" style="fill:#fff;stroke:#fff;stroke-miterlimit:10;stroke-width:0.200000002980232px"/><rect x="1685.2431" y="140.62239" width="1.3" height="3.6" transform="translate(909.67921 1606.93982) rotate(-60)" style="fill:none"/><rect x="1684.1931" y="141.87239" width="3.4" height="1.1" transform="translate(3264.78222 1184.41273) rotate(-150)" style="fill:#fff;stroke:#fff;stroke-miterlimit:10;stroke-width:0.200000002980232px"/><rect x="1691.47848" y="144.22239" width="1.3" height="3.6" transform="translate(909.67921 1614.13982) rotate(-60)" style="fill:none"/><rect x="1690.42848" y="145.47239" width="3.4" height="1.1" transform="translate(3274.6176 1194.24811) rotate(-150)" style="fill:#fff;stroke:#fff;stroke-miterlimit:10;stroke-width:0.200000002980232px"/><rect x="1697.71386" y="147.82239" width="1.3" height="3.6" transform="translate(909.67921 1621.33982) rotate(-60)" style="fill:none"/><rect x="1696.66386" y="149.07239" width="3.4" height="1.1" transform="translate(3284.45299 1204.08349) rotate(-150)" style="fill:#fff;stroke:#fff;stroke-miterlimit:10;stroke-width:0.200000002980232px"/><rect x="1703.94924" y="151.42239" width="1.3" height="3.6" transform="translate(909.67921 1628.53982) rotate(-60)" style="fill:none"/><rect x="1702.89924" y="152.67239" width="3.4" height="1.1" transform="translate(3294.28837 1213.91888) rotate(-150)" style="fill:#fff;stroke:#fff;stroke-miterlimit:10;stroke-width:0.200000002980232px"/><rect x="1710.18463" y="155.02239" width="1.3" height="3.6" transform="translate(909.67921 1635.73982) rotate(-60)" style="fill:none"/><rect x="1709.13463" y="156.27239" width="3.4" height="1.1" transform="translate(3304.12375 1223.75426) rotate(-150)" style="fill:#fff;stroke:#fff;stroke-miterlimit:10;stroke-width:0.200000002980232px"/><rect x="1716.42001" y="158.62239" width="1.3" height="3.6" transform="translate(909.67921 1642.93982) rotate(-60)" style="fill:none"/><rect x="1715.37001" y="159.87239" width="3.4" height="1.1" transform="translate(3313.95914 1233.58964) rotate(-150)" style="fill:#fff;stroke:#fff;stroke-miterlimit:10;stroke-width:0.200000002980232px"/><rect x="1722.65539" y="162.22239" width="1.3" height="3.6" transform="translate(909.67921 1650.13982) rotate(-60)" style="fill:none"/><rect x="1721.60539" y="163.47239" width="3.4" height="1.1" transform="translate(3323.79452 1243.42503) rotate(-150)" style="fill:#fff;stroke:#fff;stroke-miterlimit:10;stroke-width:0.200000002980232px"/><rect x="1728.89078" y="165.82239" width="1.3" height="3.6" transform="translate(909.67921 1657.33982) rotate(-60)" style="fill:none"/><rect x="1727.84078" y="167.07239" width="3.4" height="1.1" transform="translate(3333.6299 1253.26041) rotate(-150)" style="fill:#fff;stroke:#fff;stroke-miterlimit:10;stroke-width:0.200000002980232px"/><rect x="1735.12616" y="169.42239" width="1.3" height="3.6" transform="translate(909.67921 1664.53982) rotate(-60)" style="fill:none"/><rect x="1734.07616" y="170.67239" width="3.4" height="1.1" transform="translate(3343.46529 1263.09579) rotate(-150)" style="fill:#fff;stroke:#fff;stroke-miterlimit:10;stroke-width:0.200000002980232px"/><rect x="1741.36154" y="173.02239" width="1.3" height="3.6" transform="translate(909.67921 1671.73983) rotate(-60)" style="fill:none"/><rect x="1740.31154" y="174.27239" width="3.4" height="1.1" transform="translate(3353.30067 1272.93117) rotate(-150)" style="fill:#fff;stroke:#fff;stroke-miterlimit:10;stroke-width:0.200000002980232px"/><rect x="1747.59693" y="176.62239" width="1.3" height="3.6" transform="translate(909.67921 1678.93983) rotate(-60)" style="fill:none"/><rect x="1746.54693" y="177.87239" width="3.4" height="1.1" transform="translate(3363.13605 1282.76656) rotate(-150)" style="fill:#fff;stroke:#fff;stroke-miterlimit:10;stroke-width:0.200000002980232px"/><rect x="1753.83231" y="180.22239" width="1.3" height="3.6" transform="translate(909.67921 1686.13983) rotate(-60)" style="fill:none"/><rect x="1752.78231" y="181.47239" width="3.4" height="1.1" transform="translate(3372.97143 1292.60194) rotate(-150)" style="fill:#fff;stroke:#fff;stroke-miterlimit:10;stroke-width:0.200000002980232px"/><rect x="1760.06769" y="183.82239" width="1.3" height="3.6" transform="translate(909.67921 1693.33983) rotate(-60)" style="fill:none"/><rect x="1759.01769" y="185.07239" width="3.4" height="1.1" transform="translate(3382.80682 1302.43732) rotate(-150)" style="fill:#fff;stroke:#fff;stroke-miterlimit:10;stroke-width:0.200000002980232px"/><rect x="1766.30307" y="187.42239" width="1.3" height="3.6" transform="translate(909.67921 1700.53983) rotate(-60)" style="fill:none"/><rect x="1765.25307" y="188.67239" width="3.4" height="1.1" transform="translate(3392.6422 1312.27271) rotate(-150)" style="fill:#fff;stroke:#fff;stroke-miterlimit:10;stroke-width:0.200000002980232px"/><rect x="1772.53846" y="191.02239" width="1.3" height="3.6" transform="translate(909.67921 1707.73983) rotate(-60)" style="fill:none"/><rect x="1771.48846" y="192.27239" width="3.4" height="1.1" transform="translate(3402.47758 1322.10809) rotate(-150)" style="fill:#fff;stroke:#fff;stroke-miterlimit:10;stroke-width:0.200000002980232px"/><rect x="1965.915" y="272.79159" width="1.3" height="3.6" style="fill:none"/><rect x="1774.79093" y="198.33921" width="3.4" height="1.1" transform="translate(1767.67579 2051.08252) rotate(-90)" style="fill:#fff;stroke:#fff;stroke-miterlimit:10;stroke-width:0.200000002980232px"/><rect x="1965.915" y="279.99159" width="1.3" height="3.6" style="fill:none"/><rect x="1774.79093" y="205.53921" width="3.4" height="1.1" transform="translate(1760.47579 2058.28252) rotate(-90)" style="fill:#fff;stroke:#fff;stroke-miterlimit:10;stroke-width:0.200000002980232px"/><rect x="1965.915" y="287.19159" width="1.3" height="3.6" style="fill:none"/><rect x="1774.79093" y="212.73921" width="3.4" height="1.1" transform="translate(1753.27579 2065.48252) rotate(-90)" style="fill:#fff;stroke:#fff;stroke-miterlimit:10;stroke-width:0.200000002980232px"/><rect x="1965.915" y="294.39159" width="1.3" height="3.6" style="fill:none"/><rect x="1774.79093" y="219.93921" width="3.4" height="1.1" transform="translate(1746.07579 2072.68252) rotate(-90)" style="fill:#fff;stroke:#fff;stroke-miterlimit:10;stroke-width:0.200000002980232px"/><rect x="1965.915" y="301.59159" width="1.3" height="3.6" style="fill:none"/><rect x="1774.79093" y="227.13921" width="3.4" height="1.1" transform="translate(1738.87579 2079.88252) rotate(-90)" style="fill:#fff;stroke:#fff;stroke-miterlimit:10;stroke-width:0.200000002980232px"/><rect x="1965.915" y="308.79159" width="1.3" height="3.6" style="fill:none"/><rect x="1774.79093" y="234.33921" width="3.4" height="1.1" transform="translate(1731.67579 2087.08252) rotate(-90)" style="fill:#fff;stroke:#fff;stroke-miterlimit:10;stroke-width:0.200000002980232px"/><rect x="1965.915" y="315.99159" width="1.3" height="3.6" style="fill:none"/><rect x="1774.79093" y="241.53921" width="3.4" height="1.1" transform="translate(1724.47579 2094.28252) rotate(-90)" style="fill:#fff;stroke:#fff;stroke-miterlimit:10;stroke-width:0.200000002980232px"/><rect x="1965.915" y="323.19159" width="1.3" height="3.6" style="fill:none"/><rect x="1774.79093" y="248.73921" width="3.4" height="1.1" transform="translate(1717.27579 2101.48252) rotate(-90)" style="fill:#fff;stroke:#fff;stroke-miterlimit:10;stroke-width:0.200000002980232px"/><rect x="1965.915" y="330.39159" width="1.3" height="3.6" style="fill:none"/><rect x="1774.79093" y="255.93921" width="3.4" height="1.1" transform="translate(1710.07579 2108.68252) rotate(-90)" style="fill:#fff;stroke:#fff;stroke-miterlimit:10;stroke-width:0.200000002980232px"/><rect x="1965.915" y="337.59159" width="1.3" height="3.6" style="fill:none"/><rect x="1774.79093" y="263.13921" width="3.4" height="1.1" transform="translate(1702.87579 2115.88252) rotate(-90)" style="fill:#fff;stroke:#fff;stroke-miterlimit:10;stroke-width:0.200000002980232px"/><rect x="1965.915" y="344.79159" width="1.3" height="3.6" style="fill:none"/><rect x="1774.79093" y="270.33921" width="3.4" height="1.1" transform="translate(1695.67579 2123.08252) rotate(-90)" style="fill:#fff;stroke:#fff;stroke-miterlimit:10;stroke-width:0.200000002980232px"/><rect x="1965.915" y="351.99159" width="1.3" height="3.6" style="fill:none"/><rect x="1774.79093" y="277.53921" width="3.4" height="1.1" transform="translate(1688.47579 2130.28252) rotate(-90)" style="fill:#fff;stroke:#fff;stroke-miterlimit:10;stroke-width:0.200000002980232px"/><rect x="1965.915" y="359.19159" width="1.3" height="3.6" style="fill:none"/><rect x="1774.79093" y="284.73921" width="3.4" height="1.1" transform="translate(1681.27579 2137.48252) rotate(-90)" style="fill:#fff;stroke:#fff;stroke-miterlimit:10;stroke-width:0.200000002980232px"/><rect x="1965.915" y="366.39159" width="1.3" height="3.6" style="fill:none"/><rect x="1774.79093" y="291.93921" width="3.4" height="1.1" transform="translate(1674.07579 2144.68252) rotate(-90)" style="fill:#fff;stroke:#fff;stroke-miterlimit:10;stroke-width:0.200000002980232px"/><rect x="1965.915" y="373.59159" width="1.3" height="3.6" style="fill:none"/><rect x="1774.79093" y="299.13921" width="3.4" height="1.1" transform="translate(1666.87579 2151.88252) rotate(-90)" style="fill:#fff;stroke:#fff;stroke-miterlimit:10;stroke-width:0.200000002980232px"/><rect x="1770.88753" y="304.81682" width="3.6" height="1.3" transform="translate(274.83576 1002.97094) rotate(-30)" style="fill:none"/><rect x="1770.98753" y="304.91682" width="3.4" height="1.1" transform="translate(274.83576 1002.97094) rotate(-30)" style="fill:#fff;stroke:#fff;stroke-miterlimit:10;stroke-width:0.200000002980232px"/><rect x="1764.65214" y="308.41682" width="3.6" height="1.3" transform="translate(272.20037 1000.33555) rotate(-30)" style="fill:none"/><rect x="1764.75214" y="308.51682" width="3.4" height="1.1" transform="translate(272.20037 1000.33555) rotate(-30)" style="fill:#fff;stroke:#fff;stroke-miterlimit:10;stroke-width:0.200000002980232px"/><rect x="1758.41676" y="312.01682" width="3.6" height="1.3" transform="translate(269.56499 997.70017) rotate(-30)" style="fill:none"/><rect x="1758.51676" y="312.11682" width="3.4" height="1.1" transform="translate(269.56499 997.70017) rotate(-30)" style="fill:#fff;stroke:#fff;stroke-miterlimit:10;stroke-width:0.200000002980232px"/><rect x="1752.18138" y="315.61682" width="3.6" height="1.3" transform="translate(266.92961 995.06479) rotate(-30)" style="fill:none"/><rect x="1752.28138" y="315.71682" width="3.4" height="1.1" transform="translate(266.92961 995.06479) rotate(-30)" style="fill:#fff;stroke:#fff;stroke-miterlimit:10;stroke-width:0.200000002980232px"/><rect x="1745.946" y="319.21682" width="3.6" height="1.3" transform="translate(264.29423 992.42941) rotate(-30)" style="fill:none"/><rect x="1746.046" y="319.31682" width="3.4" height="1.1" transform="translate(264.29423 992.42941) rotate(-30)" style="fill:#fff;stroke:#fff;stroke-miterlimit:10;stroke-width:0.200000002980232px"/><rect x="1739.71061" y="322.81682" width="3.6" height="1.3" transform="translate(261.65884 989.79402) rotate(-30)" style="fill:none"/><rect x="1739.81061" y="322.91682" width="3.4" height="1.1" transform="translate(261.65884 989.79402) rotate(-30)" style="fill:#fff;stroke:#fff;stroke-miterlimit:10;stroke-width:0.200000002980232px"/><rect x="1733.47523" y="326.41682" width="3.6" height="1.3" transform="translate(259.02346 987.15864) rotate(-30)" style="fill:none"/><rect x="1733.57523" y="326.51682" width="3.4" height="1.1" transform="translate(259.02346 987.15864) rotate(-30)" style="fill:#fff;stroke:#fff;stroke-miterlimit:10;stroke-width:0.200000002980232px"/><rect x="1727.23985" y="330.01682" width="3.6" height="1.3" transform="translate(256.38808 984.52326) rotate(-30)" style="fill:none"/><rect x="1727.33985" y="330.11682" width="3.4" height="1.1" transform="translate(256.38808 984.52326) rotate(-30)" style="fill:#fff;stroke:#fff;stroke-miterlimit:10;stroke-width:0.200000002980232px"/><rect x="1721.00446" y="333.61682" width="3.6" height="1.3" transform="translate(253.75269 981.88787) rotate(-30)" style="fill:none"/><rect x="1721.10446" y="333.71682" width="3.4" height="1.1" transform="translate(253.75269 981.88787) rotate(-30)" style="fill:#fff;stroke:#fff;stroke-miterlimit:10;stroke-width:0.200000002980232px"/><rect x="1714.76908" y="337.21682" width="3.6" height="1.3" transform="translate(251.11731 979.25249) rotate(-30)" style="fill:none"/><rect x="1714.86908" y="337.31682" width="3.4" height="1.1" transform="translate(251.11731 979.25249) rotate(-30)" style="fill:#fff;stroke:#fff;stroke-miterlimit:10;stroke-width:0.200000002980232px"/><rect x="1708.5337" y="340.81682" width="3.6" height="1.3" transform="translate(248.48193 976.61711) rotate(-30)" style="fill:none"/><rect x="1708.6337" y="340.91682" width="3.4" height="1.1" transform="translate(248.48193 976.61711) rotate(-30)" style="fill:#fff;stroke:#fff;stroke-miterlimit:10;stroke-width:0.200000002980232px"/><rect x="1702.29831" y="344.41682" width="3.6" height="1.3" transform="translate(245.84655 973.98173) rotate(-30)" style="fill:none"/><rect x="1702.39831" y="344.51682" width="3.4" height="1.1" transform="matrix(0.86603, -0.5, 0.5, 0.86603, 245.84655, 973.98173)" style="fill:#fff;stroke:#fff;stroke-miterlimit:10;stroke-width:0.200000002980232px"/><rect x="1696.06293" y="348.01682" width="3.6" height="1.3" transform="translate(243.21116 971.34634) rotate(-30)" style="fill:none"/><rect x="1696.16293" y="348.11682" width="3.4" height="1.1" transform="matrix(0.86603, -0.5, 0.5, 0.86603, 243.21116, 971.34634)" style="fill:#fff;stroke:#fff;stroke-miterlimit:10;stroke-width:0.200000002980232px"/><rect x="1689.82755" y="351.61682" width="3.6" height="1.3" transform="translate(240.57578 968.71096) rotate(-30)" style="fill:none"/><rect x="1689.92755" y="351.71682" width="3.4" height="1.1" transform="matrix(0.86603, -0.5, 0.5, 0.86603, 240.57578, 968.71096)" style="fill:#fff;stroke:#fff;stroke-miterlimit:10;stroke-width:0.200000002980232px"/><rect x="1683.59217" y="355.21682" width="3.6" height="1.3" transform="translate(237.9404 966.07558) rotate(-30)" style="fill:none"/><rect x="1683.69217" y="355.31682" width="3.4" height="1.1" transform="translate(237.9404 966.07558) rotate(-30)" style="fill:#fff;stroke:#fff;stroke-miterlimit:10;stroke-width:0.200000002980232px"/><rect x="1677.83691" y="353.43013" width="1.3" height="3.6" transform="translate(721.67921 1706.92975) rotate(-60)" style="fill:none"/><rect x="1676.78691" y="354.68013" width="3.4" height="1.1" transform="translate(592.56374 -715.94926) rotate(30)" style="fill:#fff;stroke:#fff;stroke-miterlimit:10;stroke-width:0.200000002980232px"/><rect x="1671.60153" y="349.83013" width="1.3" height="3.6" transform="translate(721.67921 1699.72975) rotate(-60)" style="fill:none"/><rect x="1670.55153" y="351.08013" width="3.4" height="1.1" transform="translate(589.92836 -713.31388) rotate(30)" style="fill:#fff;stroke:#fff;stroke-miterlimit:10;stroke-width:0.200000002980232px"/><rect x="1665.36614" y="346.23013" width="1.3" height="3.6" transform="translate(721.67921 1692.52975) rotate(-60)" style="fill:none"/><rect x="1664.31614" y="347.48013" width="3.4" height="1.1" transform="translate(587.29298 -710.6785) rotate(30)" style="fill:#fff;stroke:#fff;stroke-miterlimit:10;stroke-width:0.200000002980232px"/><rect x="1659.13076" y="342.63013" width="1.3" height="3.6" transform="translate(721.67921 1685.32975) rotate(-60)" style="fill:none"/><rect x="1658.08076" y="343.88013" width="3.4" height="1.1" transform="translate(584.65759 -708.04311) rotate(30)" style="fill:#fff;stroke:#fff;stroke-miterlimit:10;stroke-width:0.200000002980232px"/><rect x="1652.89538" y="339.03013" width="1.3" height="3.6" transform="translate(721.67921 1678.12975) rotate(-60)" style="fill:none"/><rect x="1651.84538" y="340.28013" width="3.4" height="1.1" transform="translate(582.02221 -705.40773) rotate(30)" style="fill:#fff;stroke:#fff;stroke-miterlimit:10;stroke-width:0.200000002980232px"/><rect x="1646.65999" y="335.43013" width="1.3" height="3.6" transform="translate(721.67921 1670.92975) rotate(-60)" style="fill:none"/><rect x="1645.60999" y="336.68013" width="3.4" height="1.1" transform="translate(579.38683 -702.77235) rotate(30)" style="fill:#fff;stroke:#fff;stroke-miterlimit:10;stroke-width:0.200000002980232px"/><rect x="1640.42461" y="331.83013" width="1.3" height="3.6" transform="translate(721.67921 1663.72975) rotate(-60)" style="fill:none"/><rect x="1639.37461" y="333.08013" width="3.4" height="1.1" transform="translate(576.75144 -700.13696) rotate(30)" style="fill:#fff;stroke:#fff;stroke-miterlimit:10;stroke-width:0.200000002980232px"/><rect x="1634.18923" y="328.23013" width="1.3" height="3.6" transform="translate(721.67921 1656.52975) rotate(-60)" style="fill:none"/><rect x="1633.13923" y="329.48013" width="3.4" height="1.1" transform="translate(574.11606 -697.50158) rotate(30)" style="fill:#fff;stroke:#fff;stroke-miterlimit:10;stroke-width:0.200000002980232px"/><rect x="1627.95385" y="324.63013" width="1.3" height="3.6" transform="matrix(0.5, -0.86603, 0.86603, 0.5, 721.67921, 1649.32975)" style="fill:none"/><rect x="1626.90385" y="325.88013" width="3.4" height="1.1" transform="translate(571.48068 -694.8662) rotate(30)" style="fill:#fff;stroke:#fff;stroke-miterlimit:10;stroke-width:0.200000002980232px"/><rect x="1621.71846" y="321.03013" width="1.3" height="3.6" transform="matrix(0.5, -0.86603, 0.86603, 0.5, 721.67921, 1642.12975)" style="fill:none"/><rect x="1620.66846" y="322.28013" width="3.4" height="1.1" transform="translate(568.8453 -692.23081) rotate(30)" style="fill:#fff;stroke:#fff;stroke-miterlimit:10;stroke-width:0.200000002980232px"/><rect x="1615.48308" y="317.43013" width="1.3" height="3.6" transform="matrix(0.5, -0.86603, 0.86603, 0.5, 721.67921, 1634.92975)" style="fill:none"/><rect x="1614.43308" y="318.68013" width="3.4" height="1.1" transform="translate(566.20991 -689.59543) rotate(30)" style="fill:#fff;stroke:#fff;stroke-miterlimit:10;stroke-width:0.200000002980232px"/><rect x="1609.2477" y="313.83013" width="1.3" height="3.6" transform="matrix(0.5, -0.86603, 0.86603, 0.5, 721.67921, 1627.72975)" style="fill:none"/><rect x="1608.1977" y="315.08013" width="3.4" height="1.1" transform="translate(563.57453 -686.96005) rotate(30)" style="fill:#fff;stroke:#fff;stroke-miterlimit:10;stroke-width:0.200000002980232px"/><rect x="1603.01231" y="310.23013" width="1.3" height="3.6" transform="translate(721.67921 1620.52975) rotate(-60)" style="fill:none"/><rect x="1601.96231" y="311.48013" width="3.4" height="1.1" transform="translate(560.93915 -684.32467) rotate(30)" style="fill:#fff;stroke:#fff;stroke-miterlimit:10;stroke-width:0.200000002980232px"/><rect x="1596.77693" y="306.63013" width="1.3" height="3.6" transform="translate(721.67921 1613.32975) rotate(-60)" style="fill:none"/><rect x="1595.72693" y="307.88013" width="3.4" height="1.1" transform="translate(558.30376 -681.68928) rotate(30)" style="fill:#fff;stroke:#fff;stroke-miterlimit:10;stroke-width:0.200000002980232px"/><rect x="1590.54155" y="303.03013" width="1.3" height="3.6" transform="translate(721.67921 1606.12975) rotate(-60)" style="fill:none"/><rect x="1589.49155" y="304.28013" width="3.4" height="1.1" transform="translate(555.66838 -679.0539) rotate(30)" style="fill:#fff;stroke:#fff;stroke-miterlimit:10;stroke-width:0.200000002980232px"/><rect x="1777.915" y="372.31821" width="1.3" height="3.6" style="fill:none"/><rect x="1586.79093" y="297.86583" width="3.4" height="1.1" transform="translate(2076.98083 -1214.37272) rotate(90)" style="fill:#fff;stroke:#fff;stroke-miterlimit:10;stroke-width:0.200000002980232px"/><rect x="1777.915" y="365.11821" width="1.3" height="3.6" style="fill:none"/><rect x="1586.79093" y="290.66583" width="3.4" height="1.1" transform="translate(2069.78083 -1221.57272) rotate(90)" style="fill:#fff;stroke:#fff;stroke-miterlimit:10;stroke-width:0.200000002980232px"/><rect x="1777.915" y="357.91821" width="1.3" height="3.6" style="fill:none"/><rect x="1586.79093" y="283.46583" width="3.4" height="1.1" transform="translate(2062.58083 -1228.77272) rotate(90)" style="fill:#fff;stroke:#fff;stroke-miterlimit:10;stroke-width:0.200000002980232px"/><rect x="1777.915" y="350.71821" width="1.3" height="3.6" style="fill:none"/><rect x="1586.79093" y="276.26583" width="3.4" height="1.1" transform="translate(2055.38083 -1235.97272) rotate(90)" style="fill:#fff;stroke:#fff;stroke-miterlimit:10;stroke-width:0.200000002980232px"/><rect x="1777.915" y="343.51821" width="1.3" height="3.6" style="fill:none"/><rect x="1586.79093" y="269.06583" width="3.4" height="1.1" transform="translate(2048.18083 -1243.17272) rotate(90)" style="fill:#fff;stroke:#fff;stroke-miterlimit:10;stroke-width:0.200000002980232px"/><rect x="1777.915" y="336.31821" width="1.3" height="3.6" style="fill:none"/><rect x="1586.79093" y="261.86583" width="3.4" height="1.1" transform="translate(2040.98083 -1250.37272) rotate(90)" style="fill:#fff;stroke:#fff;stroke-miterlimit:10;stroke-width:0.200000002980232px"/><rect x="1777.915" y="329.11821" width="1.3" height="3.6" style="fill:none"/><rect x="1586.79093" y="254.66583" width="3.4" height="1.1" transform="translate(2033.78083 -1257.57272) rotate(90)" style="fill:#fff;stroke:#fff;stroke-miterlimit:10;stroke-width:0.200000002980232px"/><rect x="1777.915" y="321.91821" width="1.3" height="3.6" style="fill:none"/><rect x="1586.79093" y="247.46583" width="3.4" height="1.1" transform="translate(2026.58083 -1264.77272) rotate(90)" style="fill:#fff;stroke:#fff;stroke-miterlimit:10;stroke-width:0.200000002980232px"/><rect x="1777.915" y="314.71821" width="1.3" height="3.6" style="fill:none"/><rect x="1586.79093" y="240.26583" width="3.4" height="1.1" transform="translate(2019.38083 -1271.97272) rotate(90)" style="fill:#fff;stroke:#fff;stroke-miterlimit:10;stroke-width:0.200000002980232px"/><rect x="1777.915" y="307.51821" width="1.3" height="3.6" style="fill:none"/><rect x="1586.79093" y="233.06583" width="3.4" height="1.1" transform="translate(2012.18083 -1279.17272) rotate(90)" style="fill:#fff;stroke:#fff;stroke-miterlimit:10;stroke-width:0.200000002980232px"/><rect x="1777.915" y="300.31821" width="1.3" height="3.6" style="fill:none"/><rect x="1586.79093" y="225.86583" width="3.4" height="1.1" transform="translate(2004.98083 -1286.37272) rotate(90)" style="fill:#fff;stroke:#fff;stroke-miterlimit:10;stroke-width:0.200000002980232px"/><rect x="1777.915" y="293.11821" width="1.3" height="3.6" style="fill:none"/><rect x="1586.79093" y="218.66583" width="3.4" height="1.1" transform="translate(1997.78083 -1293.57272) rotate(90)" style="fill:#fff;stroke:#fff;stroke-miterlimit:10;stroke-width:0.200000002980232px"/><rect x="1777.915" y="285.91821" width="1.3" height="3.6" style="fill:none"/><rect x="1586.79093" y="211.46583" width="3.4" height="1.1" transform="translate(1990.58083 -1300.77272) rotate(90)" style="fill:#fff;stroke:#fff;stroke-miterlimit:10;stroke-width:0.200000002980232px"/><rect x="1777.915" y="278.71821" width="1.3" height="3.6" style="fill:none"/><rect x="1586.79093" y="204.26583" width="3.4" height="1.1" transform="translate(1983.38083 -1307.97272) rotate(90)" style="fill:#fff;stroke:#fff;stroke-miterlimit:10;stroke-width:0.200000002980232px"/><rect x="1777.915" y="271.51821" width="1.3" height="3.6" style="fill:none"/><rect x="1586.79093" y="197.06583" width="3.4" height="1.1" transform="translate(1976.18083 -1315.17272) rotate(90)" style="fill:#fff;stroke:#fff;stroke-miterlimit:10;stroke-width:0.200000002980232px"/><path d="M1594.49092,201.07993v95.84014a5,5,0,0,0,2.5,4.33013l83,47.92007a5,5,0,0,0,5,0l83-47.92007a5,5,0,0,0,2.5-4.33013V201.07993a5,5,0,0,0-2.5-4.33013l-83-47.92007a5,5,0,0,0-5,0l-83,47.92007A5,5,0,0,0,1594.49092,201.07993Z" transform="translate(190.07407 75.70238)" style="fill:#f04e1f"/><g style="clip-path:url(#clip-path)"><path d="M1592.491,198.85988V297.0094a5,5,0,0,0,2.5,4.33013l85,49.07476a5,5,0,0,0,5,0l85-49.07476a5,5,0,0,0,2.5-4.33013V198.85988a5,5,0,0,0-2.5-4.33013l-85-49.07476a5,5,0,0,0-5,0l-85,49.07476A5,5,0,0,0,1592.491,198.85988Z" transform="translate(190.07407 75.70238)" style="fill:#ffc84d"/></g><polygon points="1949.05 351.215 1951.059 355.286 1955.551 355.938 1952.3 359.107 1953.068 363.581 1949.05 361.469 1945.032 363.581 1945.799 359.107 1942.548 355.938 1947.041 355.286 1949.05 351.215" style="fill:#fff"/><polygon points="1924.55 354.365 1926.559 358.436 1931.051 359.089 1927.8 361.257 1928.568 366.731 1924.55 364.619 1920.532 366.731 1921.299 362.257 1918.048 359.089 1922.541 358.436 1924.55 354.365" style="fill:#fff"/><polygon points="1900.05 358.548 1902.059 362.619 1906.551 363.272 1903.3 366.44 1904.068 370.915 1900.05 368.802 1896.032 370.915 1896.799 366.44 1893.548 363.272 1898.041 362.619 1900.05 358.548" style="fill:#fff"/><text transform="translate(1808.54597 345.65808) rotate(-1.72608) scale(1 1.27999)" style="font-size:34px;fill:#fff;font-family:SegoeUI-Bold, Segoe UI;font-weight:700;letter-spacing:0.5520306755514706em">E<tspan x="36.56925" y="-3.64167" style="letter-spacing:0.5513844209558824em">P</tspan><tspan x="75.98078" y="-6.93721" style="letter-spacing:0.5536534926470589em">I</tspan><tspan x="105.28119" y="-10.24904" style="letter-spacing:0.5513413373161765em">C</tspan></text><text transform="translate(1789.0504 295.3606) rotate(-1.72608) scale(1 1.27999)" style="font-size:9px;fill:#fff;font-family:SegoeUI-Bold, Segoe UI;font-weight:700;letter-spacing:0.06846788194444445em">W<tspan x="9.6041" y="-0.81828" style="letter-spacing:0.07042100694444445em">H</tspan><tspan x="17.08798" y="-1.46699" style="letter-spacing:0.0715060763888889em">Y</tspan><tspan x="23.17105" y="-1.90754" style="letter-spacing:0.07389322916666667em"> </tspan><tspan x="26.27291" y="-2.34806" style="letter-spacing:0.0715060763888889em">Y</tspan><tspan x="32.32373" y="-2.99382" style="letter-spacing:0.0703125em">O</tspan><tspan x="39.72744" y="-3.68942" style="letter-spacing:0.0703125em">U</tspan><tspan x="46.84773" y="-4.17874" style="letter-spacing:0.0740017361111111em"> </tspan><tspan x="49.95366" y="-4.59966" style="letter-spacing:0.07172309027777778em">S</tspan><tspan x="55.58847" y="-5.2255" style="letter-spacing:0.0703125em">O</tspan></text><path d="M287.65043,194.15172V303.84828a5,5,0,0,0,2.5,4.33012l95,54.84828a5,5,0,0,0,5,0l95-54.84828a5,5,0,0,0,2.5-4.33012V194.15172a5,5,0,0,0-2.5-4.33012l-95-54.84828a5,5,0,0,0-5,0l-95,54.84828A5,5,0,0,0,287.65043,194.15172Z" transform="translate(190.07407 75.70238)" style="fill:#f04e1f"/><path d="M293.65044,197.61583V300.38417a5,5,0,0,0,2.5,4.33013l89,51.38417a5,5,0,0,0,5,0l89-51.38417a5,5,0,0,0,2.5-4.33013V197.61583a5,5,0,0,0-2.5-4.33013l-89-51.38417a5,5,0,0,0-5,0l-89,51.38417A5,5,0,0,0,293.65044,197.61583Z" transform="translate(190.07407 75.70238)" style="fill:none;stroke:#ffc84d;stroke-miterlimit:10;stroke-width:4px"/><rect x="603.0216" y="289.03558" width="49.5" height="10" style="fill:#ffc84d"/><rect x="502.1466" y="342.03558" width="49.5" height="10" style="fill:#ffc84d"/><rect x="636.85494" y="369.41058" width="3.83333" height="3.83333" style="fill:none"/><circle cx="638.7716" cy="371.32725" r="1.91667" style="fill:#fff"/><rect x="627.2716" y="369.41058" width="3.83333" height="3.83333" style="fill:none"/><circle cx="629.18827" cy="371.32725" r="1.91667" style="fill:#fff"/><rect x="617.68827" y="369.41058" width="3.83333" height="3.83333" style="fill:none"/><circle cx="619.60494" cy="371.32725" r="1.91667" style="fill:#fff"/><rect x="608.10494" y="369.41058" width="3.83333" height="3.83333" style="fill:none"/><circle cx="610.0216" cy="371.32725" r="1.91667" style="fill:#fff"/><rect x="598.5216" y="369.41058" width="3.83333" height="3.83333" style="fill:none"/><circle cx="600.43827" cy="371.32725" r="1.91667" style="fill:#fff"/><rect x="588.93827" y="369.41058" width="3.83333" height="3.83333" style="fill:none"/><circle cx="590.85494" cy="371.32725" r="1.91667" style="fill:#fff"/><rect x="579.35494" y="369.41058" width="3.83333" height="3.83333" style="fill:none"/><circle cx="581.2716" cy="371.32725" r="1.91667" style="fill:#fff"/><rect x="569.7716" y="369.41058" width="3.83333" height="3.83333" style="fill:none"/><circle cx="571.68827" cy="371.32725" r="1.91667" style="fill:#fff"/><rect x="560.18827" y="369.41058" width="3.83333" height="3.83333" style="fill:none"/><circle cx="562.10494" cy="371.32725" r="1.91667" style="fill:#fff"/><rect x="550.60494" y="369.41058" width="3.83333" height="3.83333" style="fill:none"/><circle cx="552.5216" cy="371.32725" r="1.91667" style="fill:#fff"/><rect x="541.0216" y="369.41058" width="3.83333" height="3.83333" style="fill:none"/><circle cx="542.93827" cy="371.32725" r="1.91667" style="fill:#fff"/><rect x="531.43827" y="369.41058" width="3.83333" height="3.83333" style="fill:none"/><circle cx="533.35494" cy="371.32725" r="1.91667" style="fill:#fff"/><rect x="521.85494" y="369.41058" width="3.83333" height="3.83333" style="fill:none"/><circle cx="523.7716" cy="371.32725" r="1.91667" style="fill:#fff"/><rect x="512.2716" y="369.41058" width="3.83333" height="3.83333" style="fill:none"/><circle cx="514.18827" cy="371.32725" r="1.91667" style="fill:#fff"/><text transform="translate(529.27128 284.28405)" style="font-size:13px;fill:#fff;font-family:SegoeUI-Semibold, Segoe UI;font-weight:700;letter-spacing:-0.0800030048076923em">WHY SO SERIOUS</text><text transform="translate(500.27131 298.65905)" style="font-size:13px;fill:#fff;font-family:SegoeUI-Bold, Segoe UI;font-weight:700;letter-spacing:-0.0800030048076923em">WHADD<tspan x="46.1333" y="0" style="letter-spacing:-0.15519831730769232em">Y</tspan><tspan x="52.00586" y="0" style="letter-spacing:-0.07996544471153846em">A M</tspan><tspan x="74.05469" y="0" style="letter-spacing:-0.0658428485576923em">E</tspan><tspan x="80.11768" y="0">AN</tspan></text><text transform="translate(555.39628 351.65906)" style="font-size:13px;fill:#fff;font-family:SegoeUI-Bold, Segoe UI;font-weight:700;letter-spacing:-0.0800030048076923em">WHADD<tspan x="46.1333" y="0" style="letter-spacing:-0.15519831730769232em">Y</tspan><tspan x="52.00586" y="0" style="letter-spacing:-0.07996544471153846em">A M</tspan><tspan x="74.05469" y="0" style="letter-spacing:-0.0658428485576923em">E</tspan><tspan x="80.11768" y="0">AN</tspan></text><text transform="translate(509.62595 333.23718)" style="font-size:37px;fill:#fff;font-family:SegoeUI-Bold, Segoe UI;font-weight:700;letter-spacing:-0.07999894425675676em">SERIOUS</text><g id="_Group_" data-name="&lt;Group&gt;"><g id="_Group_2" data-name="&lt;Group&gt;"><path id="_Path_" data-name="&lt;Path&gt;" d="M739.26958,173.41757,642.96289,130.75l-96.30668,42.66757S541.77986,319.70619,642.96289,367.25C744.14582,319.70619,739.26958,173.41757,739.26958,173.41757Z" transform="translate(190.07407 75.70238)" style="fill:#e6e2c6"/><path id="_Path_2" data-name="&lt;Path&gt;" d="M642.96278,360.9078c-38.99051-19.27658-66.06656-56.13379-80.50254-109.59924a304.18031,304.18031,0,0,1-10.12243-74.16l90.625-40.15028,90.62543,40.15028a304.13154,304.13154,0,0,1-10.12242,74.16C709.02922,304.774,681.95375,341.63122,642.96278,360.9078Z" transform="translate(190.07407 75.70238)" style="fill:#da5a41"/><g id="_Clip_Group_" data-name="&lt;Clip Group&gt;"><g style="clip-path:url(#clip-path-2)"><g id="_Group_3" data-name="&lt;Group&gt;"><polygon id="_Path_3" data-name="&lt;Path&gt;" points="936.452 270.928 951.185 263.939 833.037 212.701 714.832 264.984 732.746 271.304 833.037 226.411 936.452 270.928" style="fill:#e59739"/></g><g id="_Group_4" data-name="&lt;Group&gt;"><polygon id="_Path_4" data-name="&lt;Path&gt;" points="929.381 286.738 951.185 282.219 833.037 230.981 714.832 283.264 731.243 290.1 833.037 244.691 929.381 286.738" style="fill:#1baaa4"/></g></g></g></g><g id="_Group_5" data-name="&lt;Group&gt;" style="mix-blend-mode:multiply"><path id="_Path_5" data-name="&lt;Path&gt;" d="M739.26958,173.41757,642.96289,130.75v236.5C744.14582,319.70619,739.26958,173.41757,739.26958,173.41757Z" transform="translate(190.07407 75.70238)" style="fill:#e6e2c6"/></g></g><text transform="translate(785.00495 391.48751)" style="font-size:25.135269165039062px;fill:#e6e2c6;font-family:LeagueGothic-Regular, League Gothic;letter-spacing:0.050002883567610554em">OPER<tspan x="39.56152" y="0" style="letter-spacing:0.028012493436089518em">A</tspan><tspan x="49.66602" y="0" style="letter-spacing:0.05004173584699487em">TIONS</tspan></text><g id="_Group_6" data-name="&lt;Group&gt;"><path d="M596.4624,222.76871q-4.62452-13.50709-9.24908-27.01424,1.93332-.66192,3.87817-1.27611c4.581-1.43559,7.30316-1.32112,9.16382.434,1.82086,1.77652,2.85236,5.20743,4.21265,10.632,1.36108,5.42756,2.0415,8.89778,1.4884,11.28821-.595,2.40957-2.45941,3.68109-6.26593,4.874Q598.07169,222.21776,596.4624,222.76871Zm2.86707-5.34452c1.45379-.44757,2.23334-.83239,2.28583-2.30368a11.89467,11.89467,0,0,0-.43134-3.02841c-.331-1.31918-.83026-3.076-1.46735-5.31808-.6372-2.24127-1.13574-3.998-1.55182-5.293a11.00039,11.00039,0,0,0-1.27325-2.78758c-.865-1.16553-1.85583-1.04434-3.50952-.53523Q596.35574,207.79121,599.32947,217.42419Z" transform="translate(190.07407 75.70238)" style="fill:#e6e2c6"/><path d="M611.488,218.53268q-.96039-14.414-1.04139-28.9402,3.08781-.58939,6.19092-1.06381,4.76661,13.714,8.66583,27.62938-2.06085.25-4.11578.5607-.82653-2.8217-1.68512-5.63626-2.1177.33227-4.22778.72647.12991,2.93973.292,5.8757Q613.52274,218.07838,611.488,218.53268Zm3.88855-20.39622q-.12864-.35205-.25806-.70393-.13321.02274-.26654.04579-.00439.37483-.00824.74969.08368,4.55967.24481,9.11173,1.547-.2823,3.09821-.53237Q616.81964,202.4627,615.37653,198.13646Z" transform="translate(190.07407 75.70238)" style="fill:#e6e2c6"/><path d="M632.81207,200.53937q-.23629-.64741-.47595-1.29415l-.26269.017q.52853,8.0828,1.05712,16.16568-1.95108.12757-3.89917.309-1.3243-14.21534-2.64862-28.43065,2.26887-.21134,4.54169-.36183,2.97748,7.25857,5.52319,14.61233.21918.653.4347,1.30664.1288-.00446.25775-.00865-.265-8.09578-.52991-16.19154,2.34641-.0768,4.69385-.08885.07343,14.27665.147,28.55333-1.89486.00979-3.78888.07014Q635.5535,207.82821,632.81207,200.53937Z" transform="translate(190.07407 75.70238)" style="fill:#e6e2c6"/><path d="M655.04913,197.33q.17359-2.18793.34742-4.37588a2.30669,2.30669,0,0,0-.50519-1.83158,1.59617,1.59617,0,0,0-.99463-.38334,1.47527,1.47527,0,0,0-1.5448.95089,2.54892,2.54892,0,0,0-.246,1.036q-.50766,8.5704-1.01538,17.14086a2.42594,2.42594,0,0,0,.5014,1.82121,1.1954,1.1954,0,0,0,.82739.36615,1.27411,1.27411,0,0,0,1.37287-.95039,2.59367,2.59367,0,0,0,.2453-1.03273q.20444-2.57541.409-5.15079-.91021-.07226-1.82086-.13359.11883-1.76358.23755-3.52716,3.27355.22044,6.53857.57876-.77591,7.06692-1.55163,14.13387-1.2573-.13806-2.51654-.25356-.19364-.70028-.39215-1.40011a4.41643,4.41643,0,0,1-3.44812,1.41154,4.512,4.512,0,0,1-2.98749-1.13272,5.38085,5.38085,0,0,1-1.43848-2.15341,7.61464,7.61464,0,0,1-.3919-3.12193q.24462-8.40708.48937-16.81417a6.602,6.602,0,0,1,.92847-3.04152,5.40868,5.40868,0,0,1,2.056-2.05621,7.23709,7.23709,0,0,1,4.02954-.74031,7.084,7.084,0,0,1,3.8443,1.28493,5.55284,5.55284,0,0,1,1.80176,2.32478,6.60307,6.60307,0,0,1,.501,3.14064l-.479,4.36344Q657.45057,197.52061,655.04913,197.33Z" transform="translate(190.07407 75.70238)" style="fill:#e6e2c6"/><path d="M667.04254,188.36685q5.81.8502,11.56861,2.10315-.45859,2.1064-.91718,4.21285-3.15647-.68718-6.33167-1.25008-.65451,3.69147-1.30908,7.3829,2.181.38673,4.35334.83484-.46308,2.24472-.92621,4.48944-2.1092-.43516-4.22742-.81068-.68509,3.86356-1.37006,7.72716,2.79365.49527,5.57148,1.1-.45877,2.10687-.91742,4.2138-4.79023-1.04287-9.629-1.75058Q664.97516,202.49327,667.04254,188.36685Z" transform="translate(190.07407 75.70238)" style="fill:#e6e2c6"/><path d="M684.1958,221.43315q.70808-6.0833,1.23065-12.20389-.60177-.17545-1.20459-.34588-1.63824,5.79441-3.27624,11.58877-2.07084-.58539-4.15442-1.10676,3.46545-13.84987,6.93109-27.69979,2.503.62634,4.99121,1.32973c5.96863,1.71353,7.53784,5.33524,5.77771,10.41763-.91583,2.68587-2.54645,4.83217-4.58606,5.31845q-.67163,7.04664-1.60583,14.0373Q686.25521,222.0689,684.1958,221.43315Zm1.08289-16.288a3.75583,3.75583,0,0,0,2.34869.03449c.8374-.31795,1.70239-1.14852,2.29767-3.07862.59491-1.93078.33917-3.14813-.22138-3.883a3.86557,3.86557,0,0,0-2.12085-1.22314Q686.43091,201.07,685.27869,205.14511Z" transform="translate(190.07407 75.70238)" style="fill:#e6e2c6"/></g><ellipse cx="833.03697" cy="353.47118" rx="10.28261" ry="9.71135" style="fill:#e59739"/><circle cx="842.81738" cy="322.05209" r="7.99758" style="fill:#1baaa4"/><circle cx="823.77983" cy="322.05209" r="7.99758" style="fill:#1baaa4"/><path d="M642.96289,222.357c-12.69051,0-25.13526,9.65194-25.13526,22.34246,0,7.6886,5.65543,16.97189,10.9115,24.33652a16.841,16.841,0,0,1,28.37771-.11171c5.39571-7.468,10.98132-16.53063,10.98132-24.22481C668.09816,232.0089,655.65341,222.357,642.96289,222.357Zm-9.76924,30.72088a6.982,6.982,0,1,1,6.982-6.982A6.98277,6.98277,0,0,1,633.19365,253.07784Zm19.54965,0a6.982,6.982,0,1,1,6.982-6.982A6.981,6.981,0,0,1,652.7433,253.07784Zm-9.78041,13.71827A11.29412,11.29412,0,1,0,654.257,278.09023,11.29569,11.29569,0,0,0,642.96289,266.79611Zm2.93524,4.11939a1.793,1.793,0,1,1-1.793,1.793A1.795,1.795,0,0,1,645.89813,270.9155Zm-5.98778,0a1.793,1.793,0,1,1-1.79018,1.793A1.795,1.795,0,0,1,639.91035,270.9155Zm-3.21452,8.96491a1.793,1.793,0,1,1,1.793-1.793A1.795,1.795,0,0,1,636.69583,279.88041Zm3.21452,5.38174a1.79159,1.79159,0,1,1,1.793-1.793A1.79262,1.79262,0,0,1,639.91035,285.26215Zm1.25956-7.17193a1.793,1.793,0,1,1,1.793,1.793A1.795,1.795,0,0,1,641.16991,278.09022Zm4.72822,7.17193a1.79159,1.79159,0,1,1,1.793-1.793A1.795,1.795,0,0,1,645.89813,285.26215Zm3.33182-5.38174a1.793,1.793,0,1,1,1.793-1.793A1.79263,1.79263,0,0,1,649.23,279.88041Z" transform="translate(190.07407 75.70238)" style="fill:#e6e2c6"/><g id="_Group_7" data-name="&lt;Group&gt;"><g id="_Group_8" data-name="&lt;Group&gt;"><path id="_Path_6" data-name="&lt;Path&gt;" d="M1257.20577,173.41757,1160.89909,130.75l-96.30668,42.66757s-4.87635,146.28862,96.30668,193.83243C1262.082,319.70619,1257.20577,173.41757,1257.20577,173.41757Z" transform="translate(190.07407 75.70238)" style="fill:#e6e2c6"/><path id="_Path_7" data-name="&lt;Path&gt;" d="M1160.899,360.9078c-38.99051-19.27658-66.06656-56.13379-80.50254-109.59924a304.18031,304.18031,0,0,1-10.12243-74.16l90.625-40.15028,90.62542,40.15028a304.1305,304.1305,0,0,1-10.12242,74.16C1226.96542,304.774,1199.89,341.63122,1160.899,360.9078Z" transform="translate(190.07407 75.70238)" style="fill:#da5a41"/><polygon points="1338.312 399.423 1339.862 402.563 1343.327 403.067 1340.82 405.511 1341.412 408.963 1338.312 407.333 1335.212 408.963 1335.804 405.511 1333.296 403.067 1336.762 402.563 1338.312 399.423" style="fill:#e6e2c6"/><polygon points="1363.312 399.423 1364.862 402.563 1368.327 403.067 1365.82 405.511 1366.412 408.963 1363.312 407.333 1360.212 408.963 1360.804 405.511 1358.296 403.067 1361.762 402.563 1363.312 399.423" style="fill:#e6e2c6"/><polygon points="1350.973 409.178 1353.132 413.551 1357.958 414.253 1354.465 417.657 1355.29 422.463 1350.973 420.194 1346.657 422.463 1347.481 417.657 1343.989 414.253 1348.815 413.551 1350.973 409.178" style="fill:#e6e2c6"/><rect x="1295.17123" y="357.96505" width="3.83333" height="3.83333" style="fill:none"/><circle cx="1297.0879" cy="359.88172" r="1.91667" style="fill:#e6e2c6"/><rect x="1304.75456" y="357.96505" width="3.83333" height="3.83333" style="fill:none"/><circle cx="1306.67123" cy="359.88172" r="1.91667" style="fill:#e6e2c6"/><rect x="1314.3379" y="357.96505" width="3.83333" height="3.83333" style="fill:none"/><circle cx="1316.25456" cy="359.88172" r="1.91667" style="fill:#e6e2c6"/><rect x="1323.92123" y="357.96505" width="3.83333" height="3.83333" style="fill:none"/><circle cx="1325.8379" cy="359.88172" r="1.91667" style="fill:#e6e2c6"/><rect x="1373.3379" y="357.96505" width="3.83333" height="3.83333" style="fill:none"/><circle cx="1375.25456" cy="359.88172" r="1.91667" style="fill:#e6e2c6"/><rect x="1382.92123" y="357.96505" width="3.83333" height="3.83333" style="fill:none"/><circle cx="1384.8379" cy="359.88172" r="1.91667" style="fill:#e6e2c6"/><rect x="1392.50456" y="357.96505" width="3.83333" height="3.83333" style="fill:none"/><circle cx="1394.42123" cy="359.88172" r="1.91667" style="fill:#e6e2c6"/><rect x="1402.0879" y="357.96505" width="3.83333" height="3.83333" style="fill:none"/><circle cx="1404.00456" cy="359.88172" r="1.91667" style="fill:#e6e2c6"/><polyline points="1276.514 350.733 1426.38 350.733 1436.996 314.382 1265.496 314.405" style="fill:#1baaa4"/><line x1="1271.83629" y1="317.04838" x2="1430.11004" y2="317.04838" style="fill:none;stroke:#e6e2c6;stroke-miterlimit:10;stroke-width:2px"/><line x1="1278.46129" y1="345.04838" x2="1423.48504" y2="345.04838" style="fill:none;stroke:#e6e2c6;stroke-miterlimit:10;stroke-width:2px"/><polygon points="1285.968 323.049 1288.287 327.749 1293.474 328.503 1289.721 332.161 1290.607 337.327 1285.968 334.888 1281.329 337.327 1282.215 332.161 1278.461 328.503 1283.648 327.749 1285.968 323.049" style="fill:#e6e2c6"/><polygon points="1415.979 323.049 1418.298 327.749 1423.485 328.503 1419.732 332.161 1420.618 337.327 1415.979 334.888 1411.339 337.327 1412.225 332.161 1408.472 328.503 1413.659 327.749 1415.979 323.049" style="fill:#e6e2c6"/></g><g id="_Group_9" data-name="&lt;Group&gt;" style="mix-blend-mode:multiply"><path id="_Path_8" data-name="&lt;Path&gt;" d="M1257.20577,173.41757,1160.89909,130.75v236.5C1262.082,319.70619,1257.20577,173.41757,1257.20577,173.41757Z" transform="translate(190.07407 75.70238)" style="fill:#e6e2c6"/></g></g><text transform="translate(1302.94096 341.15422)" style="font-size:25.135269165039062px;fill:#e6e2c6;font-family:LeagueGothic-Regular, League Gothic;letter-spacing:0.050002883567610554em">OPER<tspan x="39.56152" y="0" style="letter-spacing:0.028012493436089518em">A</tspan><tspan x="49.66602" y="0" style="letter-spacing:0.05004173584699487em">TIONS</tspan></text><ellipse cx="1350.97316" cy="290.87927" rx="10.28261" ry="9.71135" style="fill:#e59739"/><circle cx="1341.20392" cy="258.7982" r="7.99758" style="fill:#1baaa4"/><circle cx="1360.75357" cy="258.7982" r="7.99758" style="fill:#1baaa4"/><path d="M1160.89909,159.357c-12.69052,0-25.13526,9.65194-25.13526,22.34246,0,7.6886,5.65543,16.97189,10.91149,24.33652a16.841,16.841,0,0,1,28.37772-.11171c5.3957-7.468,10.98132-16.53063,10.98132-24.22481C1186.03436,169.0089,1173.58961,159.357,1160.89909,159.357Zm-9.76924,30.72088a6.982,6.982,0,1,1,6.982-6.982A6.98278,6.98278,0,0,1,1151.12985,190.07784Zm19.54965,0a6.982,6.982,0,1,1,6.982-6.982A6.981,6.981,0,0,1,1170.6795,190.07784Zm-9.78041,13.71827a11.29412,11.29412,0,1,0,11.29412,11.29412A11.29569,11.29569,0,0,0,1160.89909,203.79611Zm2.93524,4.11939a1.793,1.793,0,1,1-1.793,1.793A1.795,1.795,0,0,1,1163.83433,207.9155Zm-5.98778,0a1.793,1.793,0,1,1-1.79019,1.793A1.795,1.795,0,0,1,1157.84655,207.9155Zm-3.21452,8.96491a1.793,1.793,0,1,1,1.793-1.793A1.795,1.795,0,0,1,1154.632,216.88041Zm3.21452,5.38174a1.79159,1.79159,0,1,1,1.793-1.793A1.79263,1.79263,0,0,1,1157.84655,222.26215Zm1.25956-7.17193a1.793,1.793,0,1,1,1.793,1.793A1.795,1.795,0,0,1,1159.10611,215.09022Zm4.72822,7.17193a1.79159,1.79159,0,1,1,1.793-1.793A1.795,1.795,0,0,1,1163.83433,222.26215Zm3.33182-5.38174a1.793,1.793,0,1,1,1.793-1.793A1.79263,1.79263,0,0,1,1167.16615,216.88041Z" transform="translate(190.07407 75.70238)" style="fill:#e6e2c6"/><text transform="translate(1333.69004 364.98741)" style="font-size:14px;fill:#e6e2c6;font-family:LeagueGothic-Regular, League Gothic;letter-spacing:0.050013950892857144em">DANGER</text><g id="_Group_10" data-name="&lt;Group&gt;"><g id="_Group_11" data-name="&lt;Group&gt;"><path d="M984.23315,310.43322l-27.35155,8.30987,7.57021-10.99984" transform="translate(190.07407 75.70238)" style="fill:#aaa794"/><path d="M819.62882,310.58549l27.35156,8.30986c-5.8682-8.52673-1.702-2.4731-7.57022-10.99984Z" transform="translate(190.07407 75.70238)" style="fill:#aaa794"/><path id="_Path_9" data-name="&lt;Path&gt;" d="M998.23768,173.41757,901.931,130.75l-96.30668,42.66757S800.748,319.70619,901.931,367.25C1003.11392,319.70619,998.23768,173.41757,998.23768,173.41757Z" transform="translate(190.07407 75.70238)" style="fill:#e6e2c6"/><path id="_Path_10" data-name="&lt;Path&gt;" d="M901.93088,360.9078c-38.99051-19.27658-66.06656-56.13379-80.50254-109.59924a304.18031,304.18031,0,0,1-10.12243-74.16l90.625-40.15028,90.62543,40.15028a304.1312,304.1312,0,0,1-10.12243,74.16C967.99732,304.774,940.92185,341.63122,901.93088,360.9078Z" transform="translate(190.07407 75.70238)" style="fill:#da5a41"/><path id="_Path_11" data-name="&lt;Path&gt;" d="M969.68647,287.47537q-2.95915,6.52332-6.26206,12.58027c-15.1472,27.778-35.69761,48.171-61.443,60.89912-29.55124-14.60989-52.25851-39.31853-67.80592-73.7026" transform="translate(190.07407 75.70238)" style="fill:#1baaa4"/><polygon points="1092.005 409.178 1094.163 413.551 1098.99 414.253 1095.497 417.657 1096.322 422.463 1092.005 420.194 1087.689 422.463 1088.513 417.657 1085.021 414.253 1089.847 413.551 1092.005 409.178" style="fill:#e6e2c6"/><path d="M984.23315,310.58557a1048.98742,1048.98742,0,0,0-164.60424,0q-1.15083-14.62152-2.30152-29.243a1078.31156,1078.31156,0,0,1,169.20728,0Q985.38395,295.96405,984.23315,310.58557Z" transform="translate(190.07407 75.70238)" style="fill:#e6e2c6"/><path d="M928.67881,211.19676a26.78558,26.78558,0,0,0-53.49563,0,19.662,19.662,0,0,0,3.50129,39.01125h46.493a19.662,19.662,0,0,0,3.50129-39.01125Zm-30.32421,24.7057,2.07431-10.72917h-8.92667l14.00514-17.88194-3.26166,10.72916h10.114Z" transform="translate(190.07407 75.70238)" style="fill:#1baaa4"/></g><g id="_Group_12" data-name="&lt;Group&gt;" style="mix-blend-mode:multiply"><path id="_Path_12" data-name="&lt;Path&gt;" d="M998.23768,173.41757,901.931,130.75v236.5c39.58433-18.59988,62.93635-52.31261,76.69836-86.46672C1000.0449,227.63485,998.23768,173.41757,998.23768,173.41757Z" transform="translate(190.07407 75.70238)" style="fill:#e6e2c6"/><polyline points="1176.547 356.955 1174.307 386.288 1154.624 384.944 1168.703 356.486" style="fill:#e6e2c6"/></g></g><g id="_Group_13" data-name="&lt;Group&gt;"><path d="M861.97089,298.64127a5.03878,5.03878,0,0,1-.31989,2.03662,3.483,3.483,0,0,1-.99011,1.428,3.258,3.258,0,0,1-2.04035.774,3.336,3.336,0,0,1-2.15625-.4693,3.41867,3.41867,0,0,1-1.1607-1.272,5.02032,5.02032,0,0,1-.61078-1.96908q-.42692-5.42418-.85376-10.8483a4.88085,4.88085,0,0,1,.30853-2.01557,3.45833,3.45833,0,0,1,.979-1.46139,3.63413,3.63413,0,0,1,2.12762-.78888,3.34477,3.34477,0,0,1,3.39874,1.778,4.885,4.885,0,0,1,.59619,1.95Q861.61008,293.21231,861.97089,298.64127Zm-3.50165-10.66672a1.64268,1.64268,0,0,0-.44257-1.1276.8202.8202,0,0,0-.58148-.15979.85648.85648,0,0,0-.77557.7374,1.87984,1.87984,0,0,0-.05182.68439q.40229,5.426.80426,10.85205a1.59212,1.59212,0,0,0,.46362,1.12518.72366.72366,0,0,0,.54382.162.79658.79658,0,0,0,.75812-.735,1.72417,1.72417,0,0,0,.05292-.6842Q858.85492,293.40181,858.46924,287.97455Z" transform="translate(190.07407 75.70238)" style="fill:#1baaa4"/><path d="M864.18359,283.79333q1.39893-.08577,2.7984-.165a4.82836,4.82836,0,0,1,3.427.97311,6.93318,6.93318,0,0,1,.4458,8.70929,4.81788,4.81788,0,0,1-3.24549,1.38284q.20911,3.6884.41815,7.37683-1.35735.07691-2.71435.16007Q864.74826,293.0119,864.18359,283.79333Zm3.26923,8.14c.84277-.04776,1.371-.22672,1.65521-.67053a3.63716,3.63716,0,0,0,.27155-2.1279,4.10248,4.10248,0,0,0-.50415-2.18811,1.8795,1.8795,0,0,0-1.73694-.55826Q867.29578,289.16088,867.45282,291.93332Z" transform="translate(190.07407 75.70238)" style="fill:#1baaa4"/><path d="M874.60175,283.24384q3.20131-.1416,6.40374-.24988.04725,1.3942.09424,2.78845-1.79361.0606-3.58722.13174.09622,2.42291.19226,4.8458,1.28-.05078,2.55988-.09613.05246,1.482.105,2.964-1.27377.04514-2.5473.09567.10062,2.53615.20123,5.0722,1.7557-.0697,3.5116-.129.04715,1.39425.09424,2.78845-3.10622.105-6.21137.24234Q875.01,292.47059,874.60175,283.24384Z" transform="translate(190.07407 75.70238)" style="fill:#1baaa4"/><path d="M889.251,301.24625q-.78607-3.87978-1.59058-7.7576-.36931.00859-.73871.01767.09578,3.89433.19153,7.78866-1.35864.03328-2.7171.073-.26907-9.232-.53827-18.46381,1.40058-.04079,2.80133-.07528c3.3476-.08029,4.80524,1.73752,4.86139,5.22857.03082,1.83494-.42816,3.50034-1.46136,4.22437q.96707,4.45532,1.90826,8.91357Q890.60916,301.21766,889.251,301.24625Zm-2.391-10.25187a1.95234,1.95234,0,0,0,1.29553-.43289,2.924,2.924,0,0,0,.69275-2.3526,2.96778,2.96778,0,0,0-.79816-2.34543,1.93924,1.93924,0,0,0-1.32483-.34594Q886.79263,288.25591,886.86005,290.99438Z" transform="translate(190.07407 75.70238)" style="fill:#1baaa4"/><path d="M893.98132,301.16571q1.2758-9.25332,2.63825-18.501,1.71194-.01428,3.42389-.01916,1.4654,9.23176,2.844,18.47031-1.32073-.00252-2.64154.00088-.25606-1.88406-.51538-3.768-1.31681.00455-2.63367.01474-.23868,1.88673-.47406,3.77353Q895.30216,301.14842,893.98132,301.16571Zm4.538-12.507q-.03973-.2385-.07947-.47711l-.15485.00088q-.037.239-.07409.478-.381,2.91734-.7547,5.83508.941-.00667,1.88208-.01053Q898.93241,291.57151,898.51929,288.65866Z" transform="translate(190.07407 75.70238)" style="fill:#1baaa4"/><path d="M903.95129,285.43707q.005-1.395.01-2.79,4.04691.01443,8.09345.08216-.02345,1.3948-.04669,2.78964-1.31672-.02193-2.63361-.03839-.0975,7.84022-.19489,15.68042-1.35891-.01693-2.71777-.02762.06171-7.84057.12335-15.68112Q905.26828,285.44176,903.95129,285.43707Z" transform="translate(190.07407 75.70238)" style="fill:#1baaa4"/><path d="M914.4422,282.77383q1.40067.0288,2.80145.06415-.23254,9.23292-.465,18.46582-1.35866-.03419-2.71735-.06228Q914.2517,292.00768,914.4422,282.77383Z" transform="translate(190.07407 75.70238)" style="fill:#1baaa4"/><path d="M927.27594,297.8623a5.0309,5.0309,0,0,1-.53912,1.98981,3.48576,3.48576,0,0,1-1.139,1.312,3.257,3.257,0,0,1-2.11151.5477,3.33189,3.33189,0,0,1-2.09137-.70086,3.428,3.428,0,0,1-1.0149-1.3906,5.021,5.021,0,0,1-.39276-2.02377q.16525-5.43842.33039-10.87683a4.89113,4.89113,0,0,1,.52539-1.97013,3.46323,3.46323,0,0,1,1.13141-1.34628,3.63125,3.63125,0,0,1,2.19964-.553,3.34334,3.34334,0,0,1,3.1839,2.13684,4.88189,4.88189,0,0,1,.38062,2.00318Q927.50714,292.42632,927.27594,297.8623Zm-2.32043-10.984a1.64615,1.64615,0,0,0-.3172-1.169.81864.81864,0,0,0-.56043-.222.85627.85627,0,0,0-.85071.64872,1.893,1.893,0,0,0-.12591.67468q-.19,5.43759-.38,10.87521a1.59361,1.59361,0,0,0,.33844,1.16889.72226.72226,0,0,0,.52271.22012.79637.79637,0,0,0,.83313-.64819,1.731,1.731,0,0,0,.12695-.67444Q924.749,292.31527,924.95551,286.87827Z" transform="translate(190.07407 75.70238)" style="fill:#1baaa4"/><path d="M933.57855,292.3255q-.09255-.43276-.18567-.86542l-.15307-.008q-.27183,5.23264-.54364,10.46539-1.24439-.06459-2.48865-.12405l.8811-18.45066q1.24439.05938,2.48828.12387,1.11136,4.877,2.17975,9.75779.091.43259.18158.86514l.15241.00867q.29772-5.23133.59527-10.46259,1.28275.073,2.56482.15134-.563,9.21863-1.12628,18.43725-1.20612-.07365-2.4126-.14245Q934.66659,297.20178,933.57855,292.3255Z" transform="translate(190.07407 75.70238)" style="fill:#1baaa4"/><path d="M946.88678,289.26587a5.89835,5.89835,0,0,0-.07227-1.81986c-.14263-.51486-.40081-.88662-.84-.91818-.72363-.02676-1.00745.68387-1.0838,1.762a4.1192,4.1192,0,0,0,.55206,2.02984c.36011.73056.84326,1.49747,1.32184,2.3136a27.09116,27.09116,0,0,1,1.545,2.94071,6.2471,6.2471,0,0,1,.58692,2.94424,5.79838,5.79838,0,0,1-1.03437,3.17129,4.00619,4.00619,0,0,1-6.24841-.70309,7.87972,7.87972,0,0,1-.43634-3.7558q1.35141-.03753,2.70319-.06894a6.92313,6.92313,0,0,0,.07812,2.14749c.1347.61362.40875,1.03623.9881,1.07807.80615.05841,1.172-.77088,1.25928-1.94837a4.54037,4.54037,0,0,0-.56025-2.08288c-.20227-.367-.40344-.75977-.63079-1.154-.48066-.79007-1.00592-1.684-1.55457-2.65378a10.56939,10.56939,0,0,1-1.1629-2.95069,4.82016,4.82016,0,0,1-.13318-1.49456,5.03951,5.03951,0,0,1,1.02038-2.85416,3.41517,3.41517,0,0,1,2.918-1.20648,3.28432,3.28432,0,0,1,3.08435,1.86944,7.02006,7.02006,0,0,1,.44092,3.312Q948.25687,289.24175,946.88678,289.26587Z" transform="translate(190.07407 75.70238)" style="fill:#1baaa4"/></g><g id="_Group_14" data-name="&lt;Group&gt;"><text transform="translate(1074.72204 398.30568)" style="font-size:14px;fill:#fff;font-family:LeagueGothic-Regular, League Gothic;letter-spacing:0.050013950892857144em">DANGER</text></g><circle cx="1069.75505" cy="393.32706" r="1.91666" style="fill:#fff"/><circle cx="1113.08838" cy="393.32706" r="1.91666" style="fill:#fff"/><rect x="218.7564" y="134.70238" width="1895.06392" height="380" style="fill:none"/><rect x="-195.49876" y="29.52195" width="734.79474" height="71.79738" transform="translate(178.48089 128.4836) rotate(-16.8952)" style="fill:#1baaa4"/><text transform="translate(213.61784 205.95481) rotate(-16.9131)" style="font-size:54px;fill:#e59739;font-family:SegoeUI-Bold, Segoe UI;font-weight:700">TEMP<tspan x="145.23047" y="0" style="letter-spacing:0.02197265625em">L</tspan><tspan x="174.02344" y="0" style="letter-spacing:-0.06982421875em">A</tspan><tspan x="208.22168" y="0">TES</tspan></text></g></g></svg>